<mxfile host="app.diagrams.net" agent="Mozilla/5.0 (Macintosh; Intel Mac OS X 10_15_7) AppleWebKit/537.36 (KHTML, like Gecko) Chrome/132.0.0.0 Safari/537.36" version="26.0.14">
  <diagram name="第 1 页" id="wvuLq5fArED6tGXSN0zR">
    <mxGraphModel dx="1402" dy="700" grid="0" gridSize="10" guides="1" tooltips="1" connect="1" arrows="1" fold="1" page="1" pageScale="1" pageWidth="827" pageHeight="1169" math="0" shadow="0">
      <root>
        <mxCell id="0" />
        <mxCell id="1" parent="0" />
        <mxCell id="tqYmkk8fS8SQap67BdXh-22" style="edgeStyle=orthogonalEdgeStyle;rounded=0;orthogonalLoop=1;jettySize=auto;html=1;exitX=0.5;exitY=0;exitDx=0;exitDy=0;entryX=0.5;entryY=1;entryDx=0;entryDy=0;" edge="1" parent="1" source="tqYmkk8fS8SQap67BdXh-1" target="tqYmkk8fS8SQap67BdXh-17">
          <mxGeometry relative="1" as="geometry" />
        </mxCell>
        <mxCell id="tqYmkk8fS8SQap67BdXh-1" value="Audio Encoder" style="rounded=1;whiteSpace=wrap;html=1;fillColor=#dae8fc;strokeColor=#6c8ebf;" vertex="1" parent="1">
          <mxGeometry x="290" y="473" width="78" height="50" as="geometry" />
        </mxCell>
        <mxCell id="tqYmkk8fS8SQap67BdXh-60" style="edgeStyle=orthogonalEdgeStyle;rounded=0;orthogonalLoop=1;jettySize=auto;html=1;exitX=0.5;exitY=0;exitDx=0;exitDy=0;entryX=0.5;entryY=1;entryDx=0;entryDy=0;" edge="1" parent="1" source="tqYmkk8fS8SQap67BdXh-2" target="tqYmkk8fS8SQap67BdXh-14">
          <mxGeometry relative="1" as="geometry" />
        </mxCell>
        <mxCell id="tqYmkk8fS8SQap67BdXh-61" style="edgeStyle=orthogonalEdgeStyle;rounded=0;orthogonalLoop=1;jettySize=auto;html=1;exitX=0.5;exitY=0;exitDx=0;exitDy=0;entryX=0.5;entryY=1;entryDx=0;entryDy=0;" edge="1" parent="1" source="tqYmkk8fS8SQap67BdXh-2" target="tqYmkk8fS8SQap67BdXh-15">
          <mxGeometry relative="1" as="geometry" />
        </mxCell>
        <mxCell id="tqYmkk8fS8SQap67BdXh-2" value="" style="rounded=1;whiteSpace=wrap;html=1;fillColor=#ffe6cc;strokeColor=#d79b00;" vertex="1" parent="1">
          <mxGeometry x="197" y="194" width="569" height="201" as="geometry" />
        </mxCell>
        <mxCell id="tqYmkk8fS8SQap67BdXh-44" style="edgeStyle=orthogonalEdgeStyle;rounded=0;orthogonalLoop=1;jettySize=auto;html=1;exitX=0.5;exitY=0;exitDx=0;exitDy=0;entryX=0.5;entryY=1;entryDx=0;entryDy=0;curved=1;" edge="1" parent="1" source="tqYmkk8fS8SQap67BdXh-4" target="tqYmkk8fS8SQap67BdXh-13">
          <mxGeometry relative="1" as="geometry" />
        </mxCell>
        <mxCell id="tqYmkk8fS8SQap67BdXh-4" value="Text Embedding" style="rounded=1;whiteSpace=wrap;html=1;fillColor=#fff2cc;strokeColor=#d6b656;" vertex="1" parent="1">
          <mxGeometry x="603.5" y="444" width="72" height="55" as="geometry" />
        </mxCell>
        <mxCell id="tqYmkk8fS8SQap67BdXh-9" value="" style="rounded=0;whiteSpace=wrap;html=1;fillColor=#dae8fc;strokeColor=#6c8ebf;gradientColor=#7ea6e0;" vertex="1" parent="1">
          <mxGeometry x="216" y="241" width="188" height="99" as="geometry" />
        </mxCell>
        <mxCell id="tqYmkk8fS8SQap67BdXh-5" value="expert1" style="rounded=1;whiteSpace=wrap;html=1;fillColor=#dae8fc;strokeColor=#6c8ebf;" vertex="1" parent="1">
          <mxGeometry x="225" y="270" width="70" height="38" as="geometry" />
        </mxCell>
        <mxCell id="tqYmkk8fS8SQap67BdXh-6" value="expert m" style="rounded=1;whiteSpace=wrap;html=1;fillColor=#dae8fc;strokeColor=#6c8ebf;" vertex="1" parent="1">
          <mxGeometry x="317.51" y="269" width="73" height="39" as="geometry" />
        </mxCell>
        <mxCell id="tqYmkk8fS8SQap67BdXh-10" value="" style="rounded=0;whiteSpace=wrap;html=1;fillColor=#e6d0de;gradientColor=#d5739d;strokeColor=#996185;" vertex="1" parent="1">
          <mxGeometry x="535" y="241" width="209" height="102" as="geometry" />
        </mxCell>
        <mxCell id="tqYmkk8fS8SQap67BdXh-7" value="expert 1" style="rounded=1;whiteSpace=wrap;html=1;fillColor=#fff2cc;strokeColor=#d6b656;" vertex="1" parent="1">
          <mxGeometry x="556" y="272" width="71" height="38" as="geometry" />
        </mxCell>
        <mxCell id="tqYmkk8fS8SQap67BdXh-8" value="expert n" style="rounded=1;whiteSpace=wrap;html=1;fillColor=#fff2cc;strokeColor=#d6b656;" vertex="1" parent="1">
          <mxGeometry x="651" y="273" width="79" height="38" as="geometry" />
        </mxCell>
        <mxCell id="tqYmkk8fS8SQap67BdXh-59" style="edgeStyle=orthogonalEdgeStyle;rounded=0;orthogonalLoop=1;jettySize=auto;html=1;exitX=0.5;exitY=0;exitDx=0;exitDy=0;entryX=0;entryY=0.5;entryDx=0;entryDy=0;" edge="1" parent="1" source="tqYmkk8fS8SQap67BdXh-11" target="tqYmkk8fS8SQap67BdXh-50">
          <mxGeometry relative="1" as="geometry" />
        </mxCell>
        <mxCell id="tqYmkk8fS8SQap67BdXh-11" value="Audio Expert Group" style="text;html=1;align=center;verticalAlign=middle;whiteSpace=wrap;rounded=0;" vertex="1" parent="1">
          <mxGeometry x="251" y="239" width="118" height="31" as="geometry" />
        </mxCell>
        <mxCell id="tqYmkk8fS8SQap67BdXh-58" style="edgeStyle=orthogonalEdgeStyle;rounded=0;orthogonalLoop=1;jettySize=auto;html=1;exitX=0.5;exitY=0;exitDx=0;exitDy=0;entryX=1;entryY=0.5;entryDx=0;entryDy=0;" edge="1" parent="1" source="tqYmkk8fS8SQap67BdXh-12" target="tqYmkk8fS8SQap67BdXh-50">
          <mxGeometry relative="1" as="geometry" />
        </mxCell>
        <mxCell id="tqYmkk8fS8SQap67BdXh-12" value="Text Expert Group" style="text;html=1;align=center;verticalAlign=middle;whiteSpace=wrap;rounded=0;" vertex="1" parent="1">
          <mxGeometry x="580" y="241" width="118" height="31" as="geometry" />
        </mxCell>
        <mxCell id="tqYmkk8fS8SQap67BdXh-46" style="edgeStyle=orthogonalEdgeStyle;rounded=0;orthogonalLoop=1;jettySize=auto;html=1;exitX=0.5;exitY=0;exitDx=0;exitDy=0;entryX=0.5;entryY=1;entryDx=0;entryDy=0;curved=1;" edge="1" parent="1" source="tqYmkk8fS8SQap67BdXh-13" target="tqYmkk8fS8SQap67BdXh-36">
          <mxGeometry relative="1" as="geometry" />
        </mxCell>
        <mxCell id="tqYmkk8fS8SQap67BdXh-47" style="edgeStyle=orthogonalEdgeStyle;rounded=0;orthogonalLoop=1;jettySize=auto;html=1;exitX=0;exitY=0.5;exitDx=0;exitDy=0;entryX=0.5;entryY=1;entryDx=0;entryDy=0;curved=1;" edge="1" parent="1" source="tqYmkk8fS8SQap67BdXh-13" target="tqYmkk8fS8SQap67BdXh-9">
          <mxGeometry relative="1" as="geometry" />
        </mxCell>
        <mxCell id="tqYmkk8fS8SQap67BdXh-48" style="edgeStyle=orthogonalEdgeStyle;rounded=0;orthogonalLoop=1;jettySize=auto;html=1;exitX=1;exitY=0.5;exitDx=0;exitDy=0;entryX=0.5;entryY=1;entryDx=0;entryDy=0;curved=1;" edge="1" parent="1" source="tqYmkk8fS8SQap67BdXh-13" target="tqYmkk8fS8SQap67BdXh-10">
          <mxGeometry relative="1" as="geometry" />
        </mxCell>
        <mxCell id="tqYmkk8fS8SQap67BdXh-51" style="edgeStyle=orthogonalEdgeStyle;rounded=0;orthogonalLoop=1;jettySize=auto;html=1;exitX=0;exitY=0.5;exitDx=0;exitDy=0;entryX=0;entryY=0.5;entryDx=0;entryDy=0;curved=1;dashed=1;" edge="1" parent="1" source="tqYmkk8fS8SQap67BdXh-13" target="tqYmkk8fS8SQap67BdXh-50">
          <mxGeometry relative="1" as="geometry">
            <Array as="points">
              <mxPoint x="148" y="369" />
              <mxPoint x="148" y="205" />
              <mxPoint x="465" y="205" />
            </Array>
          </mxGeometry>
        </mxCell>
        <mxCell id="tqYmkk8fS8SQap67BdXh-13" value="Router" style="rounded=1;whiteSpace=wrap;html=1;fillColor=#d5e8d4;strokeColor=#82b366;" vertex="1" parent="1">
          <mxGeometry x="436" y="354" width="65" height="29" as="geometry" />
        </mxCell>
        <mxCell id="tqYmkk8fS8SQap67BdXh-40" style="edgeStyle=orthogonalEdgeStyle;rounded=0;orthogonalLoop=1;jettySize=auto;html=1;exitX=0.5;exitY=0;exitDx=0;exitDy=0;entryX=0.5;entryY=1;entryDx=0;entryDy=0;" edge="1" parent="1" source="tqYmkk8fS8SQap67BdXh-14" target="tqYmkk8fS8SQap67BdXh-26">
          <mxGeometry relative="1" as="geometry" />
        </mxCell>
        <mxCell id="tqYmkk8fS8SQap67BdXh-14" value="Audio Adapter" style="rounded=1;whiteSpace=wrap;html=1;fillColor=#ffcccc;strokeColor=#36393d;" vertex="1" parent="1">
          <mxGeometry x="285.51" y="139" width="105" height="22" as="geometry" />
        </mxCell>
        <mxCell id="tqYmkk8fS8SQap67BdXh-30" style="edgeStyle=orthogonalEdgeStyle;rounded=0;orthogonalLoop=1;jettySize=auto;html=1;exitX=0.5;exitY=0;exitDx=0;exitDy=0;entryX=0.5;entryY=1;entryDx=0;entryDy=0;" edge="1" parent="1" source="tqYmkk8fS8SQap67BdXh-15" target="tqYmkk8fS8SQap67BdXh-28">
          <mxGeometry relative="1" as="geometry" />
        </mxCell>
        <mxCell id="tqYmkk8fS8SQap67BdXh-15" value="Text Embedding" style="rounded=1;whiteSpace=wrap;html=1;fillColor=#fff2cc;strokeColor=#d6b656;" vertex="1" parent="1">
          <mxGeometry x="606.25" y="94.88" width="74" height="57" as="geometry" />
        </mxCell>
        <mxCell id="tqYmkk8fS8SQap67BdXh-45" style="edgeStyle=orthogonalEdgeStyle;rounded=0;orthogonalLoop=1;jettySize=auto;html=1;exitX=0.5;exitY=0;exitDx=0;exitDy=0;entryX=0.5;entryY=1;entryDx=0;entryDy=0;curved=1;" edge="1" parent="1" source="tqYmkk8fS8SQap67BdXh-17" target="tqYmkk8fS8SQap67BdXh-13">
          <mxGeometry relative="1" as="geometry" />
        </mxCell>
        <mxCell id="tqYmkk8fS8SQap67BdXh-17" value="Audio Adapter" style="rounded=1;whiteSpace=wrap;html=1;fillColor=#ffcccc;strokeColor=#36393d;" vertex="1" parent="1">
          <mxGeometry x="289" y="428" width="80" height="20" as="geometry" />
        </mxCell>
        <mxCell id="tqYmkk8fS8SQap67BdXh-23" style="edgeStyle=orthogonalEdgeStyle;rounded=0;orthogonalLoop=1;jettySize=auto;html=1;exitX=0.5;exitY=0;exitDx=0;exitDy=0;" edge="1" parent="1" source="tqYmkk8fS8SQap67BdXh-19" target="tqYmkk8fS8SQap67BdXh-1">
          <mxGeometry relative="1" as="geometry" />
        </mxCell>
        <mxCell id="tqYmkk8fS8SQap67BdXh-19" value="" style="shape=image;verticalLabelPosition=bottom;labelBackgroundColor=default;verticalAlign=top;aspect=fixed;imageAspect=0;image=data:image/png,iVBORw0KGgoAAAANSUhEUgAAAKYAAABgCAYAAACXOQneAAAMPmlDQ1BJQ0MgUHJvZmlsZQAASImVVwdYU8kWnluSkEBoAQSkhN4EESkBpITQAkjvNkISIJQYE4KIvSwquBZURMGGroooWAGxI3YWxd4XCwrKuliwK29SQNd95Xvn++beP/+c+c+Zc+dm7gCgcYIjEuWimgDkCfPFsSEB9OSUVDqpByAABRSgAYw4XImIGR0dAaAN3v9u725Ab2hXHWVa/+z/r6bF40u4ACDREKfzJNw8iA8AgFdxReJ8AIgy3mJqvkiGYQM6YpggxItkOFOBq2Q4XYH3yH3iY1kQtwKgosbhiDMBUL8MeXoBNxNqqPdB7CzkCYQAaNAh9s3Lm8yDOA1iW+gjglimz0j/QSfzb5rpQ5ocTuYQVsxFbiqBAokolzPt/yzH/7a8XOlgDGvY1LLEobGyOcO63cqZHC7DahD3CtMjoyDWhviDgCf3hxilZElDExT+qBFXwoI1A3oQO/M4geEQG0EcLMyNjFDy6RmCYDbEcIWghYJ8djzE+hAv4kuC4pQ+m8STY5Wx0IYMMYup5M9xxPK4slgPpDkJTKX+6yw+W6mPqRdlxSdBTIHYskCQGAmxOsROkpy4cKXPmKIsVuSgj1gaK8vfEuJYvjAkQKGPFWSIg2OV/iV5ksH5YpuyBOxIJd6XnxUfqqgP1srlyPOHc8Eu84XMhEEdviQ5YnAuPH5gkGLuWDdfmBCn1Pkgyg+IVYzFKaLcaKU/bs7PDZHx5hC7SgrilGPxxHy4IBX6eIYoPzpekSdelM0Ji1bkgy8HEYAFAgEdSGFLB5NBNhC09zb2wl+KnmDAAWKQCfjAUckMjkiS9wjhNQ4UgT8h4gPJ0LgAeS8fFED+6xCruDqCDHlvgXxEDngKcR4IB7nwt1Q+SjgULRE8gYzgH9E5sHFhvrmwyfr/PT/IfmeYkIlQMtLBiHSNQU9iEDGQGEoMJtrhhrgv7o1HwKs/bC44A/ccnMd3f8JTQgfhEeE6oZNwe5JgnvinLMeCTqgfrKxF+o+1wK2hphsegPtAdaiM6+GGwBF3hXGYuB+M7AZZljJvWVXoP2n/bQY/PA2lH9mZjJKHkf3Jtj+PVLdXdxtSkdX6x/oock0fqjdrqOfn+Kwfqs+D9/CfPbFF2H7sLHYSO48dwRoBHTuONWFt2FEZHlpdT+SrazBarDyfHKgj+Ee8wScrq6TEuda5x/mLoi+fXyj7jwasyaJpYkFmVj6dCXcEPp0t5DqNoLs4u7gBINtfFH9fb2Lk+wai1/adm/8HAD7HBwYGDn/nwo4DsNcDvv6HvnO2DLh1qAJw7hBXKi5QcLjsQpDvWjrAAJgAC2AL5+MC3IE38AdBIAxEgXiQAibC7LPgOheDqWAGmAuKQSlYDlaDdWAj2AJ2gN1gH2gER8BJcAZcBJfBdXAXrp4u8AL0gXfgM4IgJISK0BADxBSxQhwQF4SB+CJBSAQSi6QgaUgmIkSkyAxkPlKKlCHrkM1IDbIXOYScRM4jHcht5CHSg7xGPqEYqobqoMaoNToSZaBMNByNRyegmegUtAhdgC5FK9BqdBfagJ5EL6LX0U70BdqPAUwV08PMMEeMgbGwKCwVy8DE2CysBCvHqrE6rBk+56tYJ9aLfcSJOA2n445wBYfiCTgXn4LPwpfg6/AdeAPeil/FH+J9+DcClWBEcCB4EdiEZEImYSqhmFBO2EY4SDgN36UuwjsikahHtCF6wHcxhZhNnE5cQlxPrCeeIHYQHxP7SSSSAcmB5EOKInFI+aRi0lrSLtJx0hVSF+mDiqqKqYqLSrBKqopQZZ5KucpOlWMqV1SeqXwma5KtyF7kKDKPPI28jLyV3Ey+RO4if6ZoUWwoPpR4SjZlLqWCUkc5TblHeaOqqmqu6qkaoypQnaNaobpH9ZzqQ9WPatpq9mostfFqUrWlatvVTqjdVntDpVKtqf7UVGo+dSm1hnqK+oD6QZ2m7qTOVuepz1avVG9Qv6L+UoOsYaXB1JioUaRRrrFf45JGryZZ01qTpcnRnKVZqXlI86ZmvxZNa5RWlFae1hKtnVrntbq1SdrW2kHaPO0F2lu0T2k/pmE0CxqLxqXNp22lnaZ16RB1bHTYOtk6pTq7ddp1+nS1dV11E3ULdSt1j+p26mF61npsvVy9ZXr79G7ofRpmPIw5jD9s8bC6YVeGvdcfru+vz9cv0a/Xv67/yYBuEGSQY7DCoNHgviFuaG8YYzjVcIPhacPe4TrDvYdzh5cM3zf8jhFqZG8UazTdaItRm1G/sYlxiLHIeK3xKeNeEz0Tf5Nsk1Umx0x6TGmmvqYC01Wmx02f03XpTHouvYLeSu8zMzILNZOabTZrN/tsbmOeYD7PvN78vgXFgmGRYbHKosWiz9LUcqzlDMtayztWZCuGVZbVGquzVu+tbayTrBdaN1p32+jbsG2KbGpt7tlSbf1sp9hW216zI9ox7HLs1ttdtkft3eyz7CvtLzmgDu4OAof1Dh0jCCM8RwhHVI+46ajmyHQscKx1fOik5xThNM+p0enlSMuRqSNXjDw78puzm3Ou81bnu6O0R4WNmjeqedRrF3sXrkuly7XR1NHBo2ePbhr9ytXBle+6wfWWG81trNtCtxa3r+4e7mL3OvceD0uPNI8qj5sMHUY0YwnjnCfBM8BztucRz49e7l75Xvu8/vJ29M7x3undPcZmDH/M1jGPfcx9OD6bfTp96b5pvpt8O/3M/Dh+1X6P/C38ef7b/J8x7ZjZzF3MlwHOAeKAgwHvWV6smawTgVhgSGBJYHuQdlBC0LqgB8HmwZnBtcF9IW4h00NOhBJCw0NXhN5kG7O57Bp2X5hH2Myw1nC18LjwdeGPIuwjxBHNY9GxYWNXjr0XaRUpjGyMAlHsqJVR96NtoqdEH44hxkTHVMY8jR0VOyP2bBwtblLczrh38QHxy+LvJtgmSBNaEjUSxyfWJL5PCkwqS+pMHpk8M/liimGKIKUplZSamLottX9c0LjV47rGu40vHn9jgs2EwgnnJxpOzJ14dJLGJM6k/WmEtKS0nWlfOFGcak5/Oju9Kr2Py+Ku4b7g+fNW8Xr4Pvwy/rMMn4yyjO5Mn8yVmT1ZflnlWb0ClmCd4FV2aPbG7Pc5UTnbcwZyk3Lr81Ty0vIOCbWFOcLWySaTCyd3iBxExaLOKV5TVk/pE4eLt0kQyQRJU74O/JBvk9pKf5E+LPAtqCz4MDVx6v5CrUJhYds0+2mLpz0rCi76bTo+nTu9ZYbZjLkzHs5kztw8C5mVPqtltsXsBbO75oTM2TGXMjdn7u/znOeVzXs7P2l+8wLjBXMWPP4l5JfaYvVicfHNhd4LNy7CFwkWtS8evXjt4m8lvJILpc6l5aVflnCXXPh11K8Vvw4szVjavsx92YblxOXC5TdW+K3YUaZVVlT2eOXYlQ2r6KtKVr1dPWn1+XLX8o1rKGukazorIiqa1lquXb72y7qsddcrAyrrq4yqFle9X89bf2WD/4a6jcYbSzd+2iTYdGtzyOaGauvq8i3ELQVbnm5N3Hr2N8ZvNdsMt5Vu+7pduL1zR+yO1hqPmpqdRjuX1aK10tqeXeN3Xd4duLupzrFuc71efekesEe65/netL039oXva9nP2F93wOpA1UHawZIGpGFaQ19jVmNnU0pTx6GwQy3N3s0HDzsd3n7E7EjlUd2jy45Rji04NnC86Hj/CdGJ3pOZJx+3TGq5eyr51LXWmNb20+Gnz50JPnPqLPPs8XM+546c9zp/6ALjQuNF94sNbW5tB393+/1gu3t7wyWPS02XPS83d4zpOHbF78rJq4FXz1xjX7t4PfJ6x42EG7dujr/ZeYt3q/t27u1XdwrufL475x7hXsl9zfvlD4weVP9h90d9p3vn0YeBD9sexT26+5j7+MUTyZMvXQueUp+WPzN9VtPt0n2kJ7jn8vNxz7teiF587i3+U+vPqpe2Lw/85f9XW19yX9cr8auB10veGLzZ/tb1bUt/dP+Dd3nvPr8v+WDwYcdHxsezn5I+Pfs89QvpS8VXu6/N38K/3RvIGxgQccQc+acABhuakQHA6+0AUFMAoMHzGWWc4vwnN0RxZpUj8J+w4owoN3cA6uD3e0wv/Lq5CcCerfD4BfU1xgMQTQUg3hOgo0cPtcGzmvxcKTMiPAdsivmanpcO/o0pzpw/5P3zHchUXcHP938BENl8RyOUelgAAABsZVhJZk1NACoAAAAIAAQBGgAFAAAAAQAAAD4BGwAFAAAAAQAAAEYBKAADAAAAAQACAACHaQAEAAAAAQAAAE4AAAAAAAAAkAAAAAEAAACQAAAAAQACoAIABAAAAAEAAACmoAMABAAAAAEAAABgAAAAAIPnr1wAAAAJcEhZcwAAFiUAABYlAUlSJPAAADBjSURBVHgB7Z1pjF1XtefXuWPNZVd5npI4A0mwEzISwvTozsDLA95D6qYFX1A3jZAQEkjQCAn4wgdoUIOgkUDwEI8GiUYg3sCDdALkAXkkAZKQidgZHA/x7HLNwx3PPf37r3PPrVu3ru3y7LJr27fOufvsYe21/ntN+7gcRBRbKqfNgYmJCevv7/dxHnnkEbvzzjtPe8xLeYDUpbz4pbVfuBxYHMBc0ukXLoLOEmWLA5hBy+oToCbXlseL4WtCenJdDDSfSxoXBzBbOZIANbm2Pl8E3xPSk+siIPmckrg4gWk1s4tB1VwMazhLcF08wJwjxJRFi1jVRNpYKot4DfECzt7PYPGki6Ql2UcSJhmu2gzXbrPUBSLdWq1m27dvd0lt3rzZOjs7W6QmMM7qgSRLF9QCq6WjC2YdLUSft6+LCJizPCpPV23voxN25V0Di0PrSNu3akfqasWaHd5+yNbetG7+89nlXpJ3s1v4Al9+syWvlkMbPTDdEKa0jz7SWhdkaQUlREKx1SqRHd05BEL5Ww0vCrf5TPF/0QCzWbZRLbKZsUqDB0EQWHF/1Qpj5XrdMQDajO5G7zNxU5/vJMYXzVE1sqmRCZt5atTKheo8pSrKfEj9aB67+b6V/JZnLV9bW8ffF9QoXmPigrQf6MzVLgpgtvJNwCxMxMD0Z1Fok7vKNjEy7ZpTHltrH2dZE7oXxOC2g7Rjfp2NTePPJWD+RolKYC00K0yXrbCvaJViGcVJhUrTvD6kfjSP3XTf1NS7zmnX0i1u0Oanjzefxrkt4zUq6Kw1Ezi30Rn7duECs4njTXLwhUdhZBX8TJWAdpGlrTIemnxPq9Iaibf28cb1H3o7wPvpxksilORarz6dS52AeIZZNkfQps/I749YrRBZOFO2ygSgLNcsKKeNPbfAjAO0ah1JhH86tHrfJhrnjQUUxSumDEIWJiLPcpml5ixPtPDhBQ5xQD10P79EVEcFaRfdRIZVtOo0zCuY7fzNUfpiJhugm99f7SX9qJFzStjAtZnnTsP8/seribvP0t1uCGmcmf0zJq1ZnQ6tNlWxjnLedvzmJUs5bc1EtJ9NViHmUUz7vB7zKtqPk9Q2N29HcwjTqyMVG911wGSxznZJJHK25znh+AmQBBYxQVoFxejXOZ1Vh9zLCJWHQFMAo20R7VNO2cju6Vhe/nguA5M5NN7UrpId2XmUOaqMQTvGrBySMZ0FldqdTBHQwikFYfSaO7UPo/l9rihjNXzkqBxZtYRLQnQelQIb3n3U1yL/c34RTxTkAWbnT9n5lLSbozk1d7shksYtV4VdtVArb0N0va3ScrVJNP2eg5ZKpVtGOPNfLwhgOh/rwhDACq8i15mUpRFwFMVMaLAMhktA1VJoM69WbXoYNUmpIuQIGU8dJgAi36n8YCB7rZJ0btKk5aMVmxyaNBtj/BpCqdbs5YcOWjo4hn8aj3SMnzFoKtMV2/HoKwiOZq3AgAbRE5TSVjwyg/mOgVkj6KnyMegvjE9aeDTFBqNxQnNjRtYE/SGbMBhn8CLfZ2YncQ1ab9swBI2+x7/RKAGbOijNm9Q71ur510g8H5lqQ9vxxz+Vp+cdmK4FwoqnenRfnCzZjscP2oEnZmzsMCmhREKuLeK0kLRGSEQ7gdabHJuJBVbC1JQDK49XbGJH0Yb2jqIB6oKrX5SiSbRRiJYqk6R/8cH9Xqcxp17VfIAMlXdyqacYidWZ0MYPjbTXPE4DoMMFeeWxHUQ96Cn2VFiuojkBXKFmpdGCzfx5xEJM5vCzh9vKE/hY8ekjVj1Stpfuf8bZg9K36t4p37DqVF9u2/7HqqwSgO1/bkdbM+2r06Zmw5QnCj6+5tTn5Ph0rNnn1593YIqksBjY+CuxzxiS25s4XLKpgwQz7NC6IiVYgTFyvCV2UFStVK00gjCnyv49lBlF2AUCoOKBMmmY6fg0pa4E1Ee6UFcxM5zhOs1ce0CHmK5If1hjSdMi/iqtQ1T2gv0pxmPMwmSZeY5t6pQimj44zsZCsNLyaKmq/OWKNkrZykdLFk3VbOcfX25ISzTz1+mREQiPAOqpqo29csTbRPDs5V8+G2/hpvU2BjjBjcasjZfQhhPxJm3XXjwqVZFVwecJR0M7+NSLgPRUtkG7CebWnTtg1hmWTO9+IZoSsWDCKvbyEwdtZic7H002PVyx8mQVYPJcDiWlPFO1/X8cg3EIXeDCYlcQYMXBSzSLkKtgrALzKuM1K2IeNUfMtxjMhT1VG98/baWDCIJ5qow5M1SiCSAEgCXoUKJbzu0rvzjkmqxMUHXCIsEK9LgSlelSe41ZHwSvwYqAoIaGtwoAY65IVw4NZNaNCD1ibVMHJhgxplubpTYqEAf26r/vcm1bg/bCMGZVhTHHXh2DL7QH+KIjwiUSYL208D6unP0pn14ZgtIUDFRb7YKmom8CrzZRWIRH3IeTFfc346YxnU1dZm/nDjVbf4K7cwfM+sbS7leJ0EhBOeOgqGDOpgHIvqemrXI0ACBoQ4KIEKFJe6kImLufGXYhiDMSQHlSmhOpUNysVAIHdnUCjeiAZZf7U+ZinOk9ZQQ4aS/c/yoAFJMBCb5eTWiBLs0RlFIupNEXSXwfLtqOp3b7CG1/NDG98Hyc8imTl6wd4UGiaZva+BjSjFNoRZ30sIkCfNsI7R+RLqoVQzYLmxEAFI4qiGPDCJQgb+axQ2jKsh16ahcuAOunb3mCBagwx8zQeKzlAeWunz1tpW0zdvClPfTn4fGUGvsjUCAmbc3cKom741/03Sv5UWXTF9jIrMHgb3k83hi1Anwfxi9qWWvL12S4BV3PETCldeKPazHup4aL9vyvDzsTQoRTgDkzRyU01oy/VcXMhjAgChCY/tBmmoBl+KmiBwgCtlJEVQTET5iGfgFfChzKCK5ckLaFNWhN94O4V66zMBba2N5ivPsZP5Sfh8lWU/WderVsu588AC0kvUdCmz6st0XqpZXTTQLf+5t9rukEqv0PHHRN3g4U0oaVSdajtbGpdCzpeXWu0qI1/FSZaYG3/IosR5Fgis1ymA2EyZ85PIk2VBaiQgDFOiBctBcBSfG5SavsK9jQ9n1WO1qgjsW1K/V1QIHYYzv/+U/QLj+XDYOYEivV3NXbsnkyuFMjv37eU1zlacbXSyjwddejT8Nn9a0PzqUB6OaBFnh/joAZExxVpI0IAFi9juBGCDYmtiOMaYIWhFVCA5YxQRWZISWfEXJlCC+GiFGgK01gincVbXqUMQBqTSkjGFU5wo4FXEpSy4zJf9R5uqElq8MwfMJs78OjrkWrU4BtRNpNWgc8A4QUiW1pXLkFlSHMO5umjJsQ4hJMjSkgOk5BAHIDpji7d5qZd+YgUXdZ2geNLUHVZaVRBEzXlJDnhwEhawOU8mflRtSKbLRC2Uq4McVnhqw0PG3VgyWrjkMzZr40hpaU2VewRzsXP4Co4UKEajc6bpP4sAJLJXmuiZtLfUPJPMttmdR5PRslYMzRh150N6m5ue7dl2Tzp2k/8QKbEMsQoWHL2w5bCE3TR0fd3De0bdOmbR1rId/PGTBFsKLs5x4kD8YyQ5g7zdn27semrYx7VEL7lWFmlRQIricARYDjXfbsL/bZwd9NWYUgdQazWxoKidxjSZfxE1NTHfb0P+0l3GDnYhIVrdcEbtwDbf+xv0zbwedHmGfIgVPGRZDmNGlKmXP6TL1MFP880SbgCCcYH7pkJhUcybwLWNIswGc+TyUAqjWmouyIQK5C/xBtGKDtXVBNQqrJpwR80pIy527yZa7drOvK5mJTBmyy6pGi5Qta35/8ew2/W1owYm0h7Sol6Hx+BgsC3fCsNoo1IWFfHSd5DyhD+btYCKdflGsd8UXfvGhdxcPjDrIM4Bx6Yge0ybq1FPVlA8r1qB2dZJOgydnIw79He46h3Ud1HEyfRlepz5YxTuLrWQVmQ61DkExEiR02tFvpHTQaoCiOAYrDMHgyhQbVc2kt2rpZow3Kamj3FKa3jJZEKyqlMgFYFJAgW5N2LKbt6Ct1psBkaQBDkUij6v3H4iFcBIAyiTapAfaazCfj1Ogb4ZMKnOUjVZvYT6QsrcXYbmoBmAICI+DY/8sRxinbAVI4iSvSzHQ/IsXkOjAZv4JGVnahka6CkkbRZpDGE0McmIAqhGBhVRqTZxHaVkCVlozYGOO7h/kO4ABahIuioMmwJtKclR0TaFRSTPSJ2EgV6ChPQQvryBWztv0HD2NtADt2tgqwlEiHAtfkiXyqas/4KcYsHkRLYJ5kuvVJ2jjK6Cuaw0lZB2imT3HfURLvJQJRxoD34WjNdv/2KTYdu5G/s/0bHFjQzVkFZjMFRx6Dsax5+qhQQxTNji+S354ZUYoFJrhpBXwKAmgi4FSm0zZNaqRwlIhxjEUDlIJMrLQKWiZk8RXANjOMtgXQ8nFUV6Z/qpi3A/8+5SmcIr5iifSG0jkCZwVzXvU5JCh4jcYpKiKnf40NonN4n0Pt2Sz7Ht1HJF+xnc/sprHMfqwCY5CK+VQrCyCwiCbAFOEDBgA/BrA2Sb1oDrkc2gS6982EofQrQND6pZXqmyQEnMUjk7HGBAgKkEygJxDxAG4IukmZpQQ4ApgQ39SYW/NnaDu246CF++HffsZgU9sY7g0ukQADC52+Wr19IJ6PTVmIshh/Ef8fvxMdmVAOsaTc5FPKjLNJAnze6ij508kCfOJllN9st+qhGRvetstmHt3lm2S288ndnXVgKvCQALb/ZsZKRNxFhL7zQcwRDKpgVosz7GR4GaKZqgIcmqPG4qVxQp6VFQhgXsuYKOUqTcBCQHK6q7SRz1YGaFhNBomjWGnLdClr2369F0EyPsAvkd6oaEzmcK0hYDKX73I0jYIvBVDud6JRPfASwDFvUwcqCAAahqv20g/22czekm371Y5Yq/ggzC3aoEEnTsoIZIY77Zl/ecYKfy5AL+OxMD9qZRplFAQ+T+0IIPK5pSll5vGZpVGlQRXkREqbKYVE+9C1pQAJsBzIPCf1JI0nkEZsjhBNKx7KZzQ2SJHTrfILEzb24iF75u8fIFqftl2Pb4/3C810E+AaSEtLE1cBWGX3pB15eocd+L+PwG8icZKuDmSA6b6oaMUHDkQH7WuceKWZd+zxlwDmGBt9ymb+uA0XDcWghO3sbJpxQeX0gQmtc4p/F0pUQj8i3PfHgk0eRvjDCGQqsL1/xDQfxulHu0gjCXAuKIAgUy5gibmh0j8y73yKmKa4DkbST4T7VLRTPlNWRoBOSQ1wH05nbGI3kTWgq6L5dLLiSXgfl++0ETAUPFW1OZTkhmwBWdo8kEuArIJKFm3NpkBrK0gbenrYyvuqtu95TowKafccpDL9RV9fB4RVKmidyA4/d8j23L+H/gU0DV6wkvaaH22oo08WyksbotksTeStq0yu6NJGk3mtKH0Eba6lqRfwNKn86TRrjTDdOlhIQb5BdxWQhNLIgEx5zwpzh/unrIp/P8Xb8uGBSSscHrMIWehIUwCXe2OMZ4wt7VkbmraQz/ifd+FLQiP8hzrmxaenacT6ZJbkb7p5ArwZ5qwe5LRtRJoZmg6MWWqkaAEukatmrQ0SF1oyC214rHbCAfDisbQVDONPoJ2lOr6PwpRtvx5j1w9ghnk9jZzX1OHQejfyIgOmr8q/d3HHXdGpGM+adXUzx/NQaQzMfJJWkZmvItCQiaWs9FFSXjhSpwjEyTyqXXEURss0w02ZzwpjIU0eMi79JH35eiGMl99Zpb9ciABaBB7NK3oqaO0I7V7lJYbCIfyp/WgWUlfP/e+X7Jr3XGEjr4wxDkKWjygfjPlDwFw4UrACjmdwIGvP/Nsztqq83LrXrnKtWoMG9eHftrCPZCGYQ2wU6LQYaUiZdYQeSnNCsL8ax+ZzLUSbkIUqEKrKH4Ze3XtAJaK5lw8qrVvjGLGaJUAh1VQjKd+ZCeyZ//WPdu19/xFLccg3oRL8KdFUQTtzelXjeLSMv1l6dtT2D++wgaDLcuX+ONEucEKbovpAG6A4A2ChR74nZt7kUhCAhnsJdh/5V9v6X//OohxtYb/87hQd4+hdQqOyTTlNjRkTJ9YKlCF2NRqD2WiHFC9fvPxPOOMHyXshSM8tAgCZ7CJBTQXNWasBZgciC0UoAqPIDPSPzrgTGJXvq7JIgTiEcVUJjivT+ceDGL6kEZiiRtVrT8gUVuQKCIwCMyDTQ2nmEC3p8zC/NKP82wpaQFpMNISYKBUBLCUaEFoVYPrZNq+o1UaZYtxs+LkRK7zAmfW/vUTfDODBB0vrpRCAhnAE5pDAq7KryonNHht5nHN0sgrxYmN6RHPKF6Nq5oAACdw3uTaZrAd1ivJdm0JfpLXW+7i/CY+oYV5opY+Ob0WDwK3kvelECXMfok0jXBrD9ZncdsiqLw7b1O6hWJHUx5Omlg9pfKoENeEelArB18H/R0AzgQBhbiT+IDDRLUXApJZiLvMADC0pX5jgqAawZ3YcsklcguoBmEZTQwHI3YFaFxOXtuXkNaZGlFS9ACC+l14ILLeB6mrW/uVTE3bTf87aoZ1TtufhrF3x+rTnKPOYZQ9woF95yjJAc82YhUg0pAtCvGXNPjxCVm5SPpfAIi2iBWlxfp7Ni4sp6qUcPAJHmj4GwtEAOhkXsH3ndlBFtftw8QuPDEh7/6MxNJbOt+PxpXE1lmTlAubq/i1A1kap4BoEbibxW/eS+CdvmavlJSvGiUEjjSJTqjP98hB5TRL25SxgnUG40q6ikfZaSyMKYTrHBz+ohWZcBQekQAk90sj1Z6Jfpl+nMeJBDEb6wS89E9N0ouW+J/6g/iWmzH/Em/KBon4FLJjrEr6SJ9ShRev3e80p+jHXNdJTNU51akMEOYAbTvGHOZCZ5nFNjcxiZVAfH7B6cEfaKs1LNsU/bLNg+TLbf+AR6+X0quuemyy7ZhnrSVlmdYel+yUgzT9bTh6YjQHEVdIx+ED/8D9G7Pq/4Xz5LyRb92yy3X8uEcEOW3p8jc3IBAKQjIRNXy1MfpYkINUuYPuQrt7jevHI5cUPgbK5SBbigq4SovrKLLhfJr9N41PvplKduY+1i8xmch/3izeDAChtzPEg44gmB6U2Qb29QKEgTmkuzSyN6gGWzL18MgSpdalobr/SR0L2sdG4HoQBFCXeeeKnOQn9riWdGfFaQgSrF0Fq2qWiweeGHq2zPkFd5zse4ntmZU75rPExLm357oW1aDlOXJ0ntSpoxtyHXB2M6i7tpy7SiNy7SyatC5jDUt2BFj1qJ1poGpMteutS0fh6oiu7WQFSjTxguGO/DT37F+sJeqzyZI89+ecn7Op8v5Xffattuuf1jCMCZ8vJA7PRF1IYK9+VsTs+Ynb5Df12zd1d9vPPjFvvlTnrw+8oPBtZthNGsVsD9+zFGxbMrM5MMZH6RJjJ0HomYApJ6Kh6dSx4fYlf5Ih5KBq8pCW0+njUqX9KQHXAM4duNV+dAYnM3G2gLp3WeToMrxexPW6qCUS/AB/TpfctAzRvxCfI8cXnVl/aMp/gKzGp6Jvh00VZXVlPNkst332BjRZN3/W4PmedVqebatEs4Klog/AV/kC3I5xvzB0XXevmXbaZTwCNThNtI9GRgQ7W7O+u+piYZtwQH11rpU7rE+KiLALTR/xEXlp7PD5VmlDvzKq91kQbSc2HTGWJIdgUmYylLxuwyakBm57B2dyyxtbfeK9l0jnr3ryuPogGmi2nCEwxHSIpIvKme1f74GGYtb/7nxlbvjptr7tv0H71Dztt+arlln8eHmBiMrl4oek83/lonc5KiBdPtUgxkCX62CndZ1mkrKwALGZTJ63hAlI9QhcNMTUxGNQ9JYEABs1jvkru1V6ziAzxEkbqmkJQ4qlrWbWQDNSWQf3lXuZMMU5EEBVk05bupEEeK9CXxiRlLDuIkPX6pAMjXkiQJ99Jn1wqYx2DeUsNZPzN70yeF1ckNbSn1u/kaFPIZxPiWUuaNTvsGE/Ad3nTR7RG1Ik7osu5pPXTHsNNJUEbz/R+gcCYYtxI/k4OwIlv4mVH3mp8r6FQUis6LVfqZhzxRFzHumnQHDR2ZGlPv94c2j6PKe60oKvDwVdz1GkefTQ/Lodkk2F8jS3gak09nVbty9vMZeut5+YN9tb7bsT3Llq2r9NW5RkfOToPmLK1nCIwYxg0BoMOFU2yYgPEK6cAY+7575vtVV587QK3CmDSHfoElu3CJ+2EKDEPH5ON5Uz3MQQICYSx0nom0MH8TB7GcUXOnlpxzcu8qYwECnPoppQLncVjB1cabZ2in0Ccpp8L2AGHvhFD/UN/NnHaAUBbngfMo6Jxaq7poBm6Bc5UF2BcTt9egLnMrGNLxtaUBu3odqIhja0CqjNdLKqLew4TgqvS1jPEL3XFngYr4I8GhlRfm5Os7wRMEpTgwVVZh3SGTeAfMhhocwHNBa4rYwik6ofqoRd1ACPFOoKYSWgqHIIsoOqEFjRk0MV9D0ADoNnNg5a5ut+6RsgauAmI+ZFGowfQHrH50rTNbOxjE/ZZOADdPV2Cv9NgaMGIfoF2OzTUoKmWoy9gjDpYc43+6/Ajpwbtsv92n6W6eSb5QYvW7XvBpaYRxYS55RSBOXcQ/+Y8Yjj+uiPO3FG2Zj1rc7bhDoKhEcDYw7OOinWuYFNyn0KDpnOwlI+AmAEgAqEELFIFmCAfAmaucgcEWAFHKR+KtICElQHwMtVKv6ivQJiiT64fgHBVblNzSF7SwmnQ59pHfhBMygh0BCrCizSwUkoSVhp5BoAx35kDkNz3IlC0Y3oN7fen7I733wZIU7Z19VZ76P/83jUy8RHzAxDmzg/ksYD0XWP2Hz7wNiLXtM08Q8SreSRMVonedG0pwGnRWoI0p2tNaHVXAS2UycIMAKVNpjZqG7CIoCMD/QidercutGEA2uZi7QVIUsvQ2Lm8ZVZ0WWqwi3/FEdiWj9yDth+0laUVtv3vf0lfAY0xRTtaMiqwzpU9lrl5pV0R9Fr/smU2/bO9tIH30CVanF5dmStCiWR6OwA1wMcqpDKA+PI+e93tf23ZfjaEaFZBPo3idfRvUxDVGSqaRHjRVTsZqhEvGrTfBtd3268en7bugcg6elI28LqKdaN10rkQTRQD0gEt4AAGFyzmNQ1wM2jXDL8GKEe/TF27Bly1UAE1hUZLASwBVkCXTHwTd9bIlQIM+mapTHXRH5AhyljLOtDRNIyT6mYO3nzSvTZBRv5UmpMNxouI2jKAL7WSOUj1dF6btdzlGeuf6LX8SohlPPmPAr2bQAAWoMFSa1LWd22vda/rsdwytIc0GeOJzjTg9yBGMnF+cZHARTsaS5bBf59RHpplcqHbWLM0o4CaxnSaPrQP0ESpbsaWZgekKcxwpA0FwIz+WUCWWgkgs9PWceUKtFgXR5W9tvyq1TEQSbLLFMvc17gG9E8NdsInNEd6LRFz1vo6uuCNNjHtfAPQDjDWxGxpSbRrBbpSA3307bVUXwc0L/MN0bV6+SwoWcZCy5kDpmYUk71AMIUlu1YDCrbm9qJ1LMc0dKbs5r9dZfv/MsI9gAAU+MDuf6Z4Jg0a4Bel2IkJIHN9MLguINVJk7nvBPUB7fO9MFM8S8cuhIQf5Qu25g1oimH6ApYsAnS/lgjCNQt9pUnlT2Z60OaYnpRMHyB3dwNwOCCgLb8augfRgMtydtt/2co4gb1+w60wnP58Qmlw0SJAQIOehysqdsd/usO1rbSMNhJPvZ3aSmNmAYOqlamS5ndT7WunVtoSfqR6oBtBC4ju28IXtasB0prGlWbGPEaYCfl34qF4JyBHuB35lf2WuZ7NQfS95bq3srYuW1u7nAmdGmaniA7GF6jTaLzs5m7rHFxtl7/mSjZ9rEnVwfmqceWDAki/Akq5CiGbubZlnaVW9Vo42G3lzWuxMNpRp1bEorNbkBl/bcvdg/xz2SnrIgiQVkp3pCzXF1gHflq+V2DjmI6AQn6lgCrNme1BQwGIjoGUdfYLMPAQDZqir/wUAVQg6hyI70MEJVOdQlPUcjW75R3X2J4fj1oejZKT1lOGAD8vjfCkPfUWUxr1Ko2oIMV9VWGgG0Exh8x4wPh9ryXAWZe2VdUB/C6HEhYfNNWLQCfNZtAjnzQ2vxFaHhNHUJO8ha/m2ghphCjfURpaABUNArWDReBC8AJvijEz/TnLYYJ9MxFQpTDbAp2shtye1EqCkj5oZ8wAqxJ0oyFdiwEc8eay5Zbb1GkrU2hBCJWmHggGfV7Ro52R7pQfSlDEoUe2vwtXpdOu2Pwa6GMe6JMB9FBL/dGS6W7as9FDaUmCG2lI+ZUb/+YOXCJc68tW2Ya7bkOwDO/W02c6qR8s/wwVoU+MbirSJoiKau1iBRCYwA0wjFqZs1x/yroxeQ5MaU+ZbC1GQpFZ7oqsb1POOtfTBgDLF8zhi0srSIju43dUrXcT5ox/deFZC+QmLer+KXPkVxExIqjOVTCTsdM6Z8ese2DlrgAgpU1PDgEjBJnFTC9AgRZprIAN87q/vcG1xXVrX+Ma0ifXOutr1jqz3YBDwGedOYKHjMwjz50FapsUNk6NMaURtYkETAFU5l8ujPpnlFKS0PsZE3D2bOzl6A+6uA8AgPvBtHNzfQVAEqioDnoy8IdxAKcCmDIB5jXvuY12zKX5IaaBE98VwE1zo/HkqyqLkF1NkAZdgVwSQKyiNn4HrRgWD3C0AeQ6ZPuWOzizgDPDd2POG9/+JmTgXflB51MoZw6Yx5zfWeIC7WcnvvbutQQp8h/T1oVpXHkTphjzlcWk5wgu0ixMvmWWgCbTV7LX3LXSBlf12Mxo2Tr6staxEsYjAPlkWTRj1Fmya/56hR36Aa/9I9wUZlU+p8yk2Nl7fafh8diKUbQUb8JnOQfPo2G0mzMKHgBD9zVZ6y6ttKczu2EyYC4JEAADNyuruepMRlyxhBK0JWtmiRlA5GBGq2WXQ6P8VIlTEYVKva0DDwF6gAhg3OeUr0bzmm8qQCSNjg+XGeywYk/Frnr7dRY8wJEpLkseAChQyQAmfbq2Luf4ECyhSVPuKuEGqQ30BwQhy9Fe7nLEVEBHrDW1BD+rh03pVfyiUeassKG7biCFIrqaiNZ9DEy5EIzb3+1grMmHve0yM4KbHHU+D32VHTjdcvojnAQFAks/jrhMWwZT2bcma5tuYsf1YtIRrMy1/E5PzcAoAWzNFcvwLwEQuziHJutYz6cfcwnlMu1RvmbrrlmB/BGoBIuApVkzAESle03Olq3ptde9/epYa2OKOwYYD2Aqfyl/0IMnaVNpO1yHzkG0dF8Oxz/FXDyIkyQ+XgKw+Ev9J1LOr0Uj42akBUzuM6zVLYakGkvZpSv63E2QVkIruuaHVGlMaalUJ1eBDqHbVo7r2ETrr7/CQm1azKZMuwdZpGsy5BVliRTpZpXeIRjL9Hda50qAQ9DjKSufOz6BSmh2urQmqU+m6btsJfzI4Sem7ar7bncXwdsmdCfLBHCkqi1DqsmUqWCDrbv9etJmXeRqlwnzZ6xA1jksgCfevYH1EPld9zbyKPILcdY7FOAM4uuxeZX+Ua5TQJFQJTDdd5OqWXd7t+XXoBUQsFJOMQDYxdrJAC2DsNP0zWK+VWSe3Y9jDmkypZC616Jd5KdiUrOK1hGyp6vAYCeuw0ZOJvKAN7Msbb0I+XjFNQlT9N7cA6hoidZZ/Ver2Fzx/HP6ihTmyOJ76qBffiO/LYYK6OReOUjP87Ep1WbgulVYlW4/8cmuAfiY8fxKzDqgkI+eIVBR0km0Z3tJlqM9Oy5fZj3XriB5LrNOTtEJgDfzUMNc9JbGXnvvFnd/0gAtxcZSGqq1eFtZKMbZ9PZbsVqY7m4FC2zu5RlbddNVrKm116l/F1vOeUE+HoX3oJnkjGcRSi+nI8uuBRgILo9WyKLZHJhsbC04gyZZfh0OvBgHSD1qB1SeNqFJlqCjhguQJnDIEgTIn401nVgal8y6jPUSWXUNDFrwojSlAjDMP6ZUyX4JOt2DxuPTuTlvXeRgN/aweY7DcY2to8LNb9rI+44lyzNv/xV9PqfWNgcQQok2iAKUGegj6a11uD+HtnJNKj8SC5FTQpvl6VhVgUfu1gFcmw7rv26FBWQaBOCO5crgx6vrGOwBrEq0m732nbdjjTO2UmZBfuI8UNIoKcwxQARdPDBCkCjHmgd0cd8zaZNcMdNpNKsS9eauFptW7cHnysvjo8V5a076nuT1vABTNIpXEpqOAeXzrd7abRtfu8x/U3AnUXges40iixlE2zzC3PKW9eoZf9y00x8/SsxQpCr3QJ8cLkEJU6oENnyPC5pz+WZlyfWp2cFdE7hCuA8rQb5kx/M8Pqy0j154uO6+zfi7uB6dBAMnKm4SFXChqUnviMTES5vTVfUoo7wS3uMAEBpTAiTHc8pxpmSOFXjJ5eHtG61UjNK1ay2aE0K38GZO4Z8PuhnN6K0czYSl6NlAdKjx+XQQWatk/CVIvz3+D2UOALU2jBeN09wjASqbXlkBGaE0Fq57w4DL0K1Svf2cjdg8xknenzdgJlpIjMyhoS6/YSUgRGshoJ5VSpHg78GsRN8JMNJwEo4WL5OdxdTq6EwpCfmKSjfJNOv8ujsnJs+y18Erv84ZJI3DGLxE07OBRDHzirm5AQDCWApM5POqLITRwqUQl+qqou0JPPjTTnOoTimeDvzs6ADzQLNOTAToAA2UIw2THszgT4a27IZVPn/jB4RLd8oqRKTHAgDcfQW/g54iUK95y1V6ysyNrch35uDPCYtSQMqHVsnbJcXXVP/CED6W/GfMt+4VaG2+bUtcv5A5knEXeD2PwIwp9ByfTB6gEZByvVlbfwMnEytx3jmPbuaPQOrfaSpgdl6GdsEXE1h1lq5z8U600fKrdaZL+qeJYQ2A1QfMyLckx7LmNYOASIEA42HqVZymBcjTG3v7GIiKprvJK8p8NubzRrE/InoU7a+/Zb1N8pKu50nlV6IxFdDkMNUdW3vRmim79o3Xx5agPr6GEeniQeYGTlPIYlx111ZV+x5f/9pNEK4WlPoanYb6ffzg2D/TG7pt9YrLJIJG/6S1hvCNBn8zMuO08fcbrK5hk4Zn8Hregelrkdqslxzmcz1gcXtBXcLr5LlaSrsppTSAafbdK4HDNKV1lJD36FwOmkx809guo/pUWSXuw4wNbFJwQ1s4sf5OUi/NE3qHZOYTX7Okcy6/ZTOav66pGv3rWoy5FZWvuXKNTffwK12gWcn++JMh0OmyTuUs2VYSfvPGimf31VsnL9cKfL11kPgzXxc/GnPW6fX6E9PuvONUaHas2T4+K3yUq9GxvEeknfVyQQCzeaHa5f6eI5VufuXQtBRhTSc+0rKJ8PztI1JH3fxbIpVYY0lTzfafvSONdFkHL/+sBuQYSBdmYKuvYUM0C7a5g496/B/aEP0cyR2v+HEib0pnBwgiBMwO7SbWnK1aD+fqmjJ+RzQZJda2+uarBePKPypgS17wTVr61Wmu92ley5xGc7+4u6T8Y9uirY+TICuAlu7eQGqu3vRYPdoOc5KVFwQw59IM+5OFH2Plep7F35wFnSJqcmz4mNf+1ToCKsIeOaXJQHMn8G9p5QmVp5G4k3kaN206nKDKN4KPkwzmQ7fvxTxpjjhlyjNE4GmOQEs5EulvIS1BUfAl6uLSNF69xtfGffNRJ72ome3lTed3rY9wMhdtB3xK/kRsprXLroj3bos1OpkRF9K2ZSUL6XIu2ojJKnM5KwWgIk0p85cUGU6d2Ogo0CNrhb7edbZ/0jfpEwty9vlsff1ufod5TeZWiGaJsF4aN0lF85Vg5fXrPQDLKVGNXy3/tIv0jwCevKUe92ihsc24cVVzu+b75nmPca8B2ow727oeguKi6NhUJia2SLMtzvTdBagxtcT2jE1q5WN2cAqSFJmaLkw4/5wkZhhMFp+T9mrXfB/3m18T19d/nuDxnLb+Je7Q6Na4md8yhf+b4lRJv0DBT2zWcaKjlzAaGruN9kuGaTNuy8y0bNMo6d/uuoDmok0vgXiRNTrLZVEBM+GF+NLFe4JJkbHp30SaxiN7auHfiXl94hbJ+Au7nsR4NPXUkU6zBshA3EjSnBMjj3xd+Ccx1sKIW3StLlBgHp+PegGkZ61IjzWLgKnToMVUpIFEc9/Gfo5QWzXQ4lrL2eD74vtPTrHRIb+VYppfoN+3Kj75cMa02u6zwa0zOKa0o3/4lxY6OFiC4lzmLkpgeq5x3mHuIkPmcXdTvBb5zrIGl2JptSEXNA8kLpdTEyi9TvWNG31ZLOX4oDv+08WyxlOjc1EBM1miJ3jrQGwIL4kYk0aL+sqqGrtwUS/klIlflMB0MDYQecprPz8dWzV76/c6Vcnpyvkh8vzPuvh8zPPPsyUKzgEHFqXGPAd8WZriPHNgCZjnWQBL07fnwBIw2/NlqfY8c2AJmOdZAEvTt+fAEjDb82Wp9jxzYAmY51kAS9O358ASMNvzZan2PHNgCZjnWQBL07fnwBIw2/NlqfY8c2AJmOdZAEvTt+fAEjDb82Wp9jxzYAmY51kAS9O358AlCczJyUkbGRlpz5FzXKu32Hft2mW/+MUvzvHMF/Z0lyQwP/vZz9r73//+cyKZGf6Lvs985jN28803Nz5PP/10Y+6XX37ZNm/ebO94xzvslltuadRf6jeX3Gtvo6OjNjAwYH19fTY+zv/Ncw6KfgGDfs+6iv4R2qOPPmp33HGHf3/44YftrW99q9/n83krFot+f6n/uOQ05s9//nOX+cTEhH39618/J/L3//GsPlPyj9CSid/0pjfZ5z73OXvve99rf/rTn5Jqv6rtpVouKY0pbbRmzRoTKCX0jRs32quvvjpP9no2+8sH5j0+pYrm8R577LGGxjylweqdzgadp0PPmex7SWnMJ554wlau5Pdw1jXRvn377LnnnpvHz2YQzXt4BiqS+U93qLNN5+nSdzr9F+UvPDjVBX/84x+3n/3sZ3b99df7EALIhz70Iff5WscsFAr229/+tlEtc3zvvfdaK5g7OjrsbW97W6OdxhweHraPfOQj9sorr/hG+M53vtN4rpsEUC+++KLt3Lmz8SyZo1HBzUsvvWSf/vSnbffu3Zbjl9G++c1v9mCqp4ffh3MxFxh5SRRSMhGRsa+ViFzOm38IOKLp6WmvJ0hp8KJUKkU/+tGPGu26urr8GaCLAHOjftOmTY0+ugG4EQDy51/+8pejP/zhD9GWLVsa7TUvptz7HDhwIPrmN7/ZeAbI54z1k5/8xJ8BwoiAKXrggQf8e29vb4QLMqftxfZFZu2SKB/96EcjNKCvddu2bQ0wCCh61q7s3bu30S4Bptr9+Mc/btQ3A7NarUb6rjH7+/sbQw4NDTXaNwNTDfB3G8+agVku81+Rxv+tWPS9732vMRbBkrcnqxA1b6RGg4vk5pLwMZVM/+lPf9pIy1x99dV25ZVXgpG4/PCHP0xuG/5no6LNDbJvU2tuwpNgasOGDY02g4P8QtiTLB/72MecFpn9d77znY3eyneqKIB79tlnG/UX280lAUyliLZu3WoPPvigfx566CF7z3ve05AlGs19z0bFKdwIrMpJJkXzJUXgSvzKpO54V431jW98w5vofvlyfgV3m/KlL32pTe3FUXXRBz9KEX3qU5+yN7zhDfbtb3+7IbVWoHzyk5+0d73rXQsCUGtfDaq65hOdxkT1m2Np2dZ2+p601Zi6bzef2h09elSXi7Jc9MB8/PHHHZQy5a1F5vJrX/uaVyuClhnGR2w08/8xrQ6ORuUCb3QUebqlHSiPBdLTnetC639Rm3IJVufiX/3qV9vyXemjpBC4eIon+a6r0jOJ9mquP9Z9kjYSeIjGj9XshPVKG2mDJBqzuUMzPc2+Z3Obi+H+ogamtOALL7zgJzzthLVu3Tpbu3atPxIIfve7381pdiztpFxou3Lrrbd6tcAzNTXVaELqqXHfetMMtOZnCsiSZ1pHUp588snk1j7wgQ807i+6GxZ/URZMaXTnnXdGnZ2d0eHDh4+5xne/+92NdA3CjRB2o63SPwQe/hyQRl/84hejL3zhCxG+aKPP+vXrG+2VviGx3nimdvfff39EUryR+tEcd999d/TUU095v0OHDjXaK6eaFI2VpIbuuecer1ad+usjOi7mclGelSvgkf+I0JEh/2kK/zG9XpYgX+nf9ePIkSP2rW99y5o1UPJQbT/xiU/4V5283Hjjjf7Wj0z7V77yFY/wdVWR2X3jG99oiVsgl+CDH/ygkXv05/JTv//979v73vc+IzFud911l39k9tkw9t3vftdTP2osDa1oXi91qABE+/CHP+x0kqT3dgp4Pv/5z89Zize+yH5clMA8FRmhfY4Z/cos6/hQ700eK3XTOqdAt3//flPOVIDUe5e6P5Wi1/N27NjhXS+VdzaXgHkCpBwPsCfouuDH52KOBRNzgTRcAuYFIoglMuZy4KKOyucudenbYuLAEjAXk7QuIVqXgHkJCXsxLXUJmItJWpcQrUvAvISEvZiW+v8BtMwNlW4JdHQAAAAASUVORK5CYII=;" vertex="1" parent="1">
          <mxGeometry x="292.68" y="548" width="72.63" height="42" as="geometry" />
        </mxCell>
        <mxCell id="tqYmkk8fS8SQap67BdXh-29" style="edgeStyle=orthogonalEdgeStyle;rounded=0;orthogonalLoop=1;jettySize=auto;html=1;exitX=0.5;exitY=0;exitDx=0;exitDy=0;entryX=0.5;entryY=1;entryDx=0;entryDy=0;" edge="1" parent="1" source="tqYmkk8fS8SQap67BdXh-21" target="tqYmkk8fS8SQap67BdXh-4">
          <mxGeometry relative="1" as="geometry" />
        </mxCell>
        <mxCell id="tqYmkk8fS8SQap67BdXh-21" value="" style="shape=image;verticalLabelPosition=bottom;labelBackgroundColor=default;verticalAlign=top;aspect=fixed;imageAspect=0;image=data:image/png,iVBORw0KGgoAAAANSUhEUgAAADQAAABCCAYAAAAYA/U3AAABVmlDQ1BJQ0MgUHJvZmlsZQAAKJFtkL8vQ2EUhp9WhSghwmZoYqmkhJYgpjIg6XBTxI9E4rqt20pbn9srQvwRFv4BYmRTI6vYJCRiMRpF0gW5zm3RFic5Oc/35v1OTl7wNupKZXxANmdb8cnxwMLiUqDhGS+dtDBGt27kVVTTYmLhe9ZW8Q6PO2973V0H/mueIumjd/304bFgOn/9NdWUSOYNme/SfYaybPCEhLVtW7m8J9xhyVHC+y6bZT52ebXMFyXPbHxC+Ea4zUjpCeFH4dBqlW5WcTazZXzd4F7fnMzNzchsl+5CY4oYAcIMM8I4A5LP//7Bkn+CDRQ7WKQxSWHL36goigxJ4WlyGPQRKu3slx5yc/6dX0XbDMLoC3jXK9ryLpyfQauqaMGIvFfgKq50S/9J1VP05dci4TL7C1B/6Div89DQAx/3jvNWcJyPE6h7gMviJ/ZbZAkuyJy4AAAAbGVYSWZNTQAqAAAACAAEARoABQAAAAEAAAA+ARsABQAAAAEAAABGASgAAwAAAAEAAgAAh2kABAAAAAEAAABOAAAAAAAAAJAAAAABAAAAkAAAAAEAAqACAAQAAAABAAAANKADAAQAAAABAAAAQgAAAABBBxFqAAAACXBIWXMAABYlAAAWJQFJUiTwAAALFElEQVRoBe1aCVCURxb+hnOGGxQJCgEleEBU0FUTRI2JpZbgtZHoooXrxgsVt8oru+tRq+u1anQ9yqPEWxSPiqWruEkZiaIERVTEqxAUFgJKFBi5hmFm/u3XOr+AM8PA/K5brq9qpq/3uvvr4/X7u59MYIR3iKzeISwcyntA/+szatPSDj548AAZGRktFedyCoUCI0aMgEwms6ieBsKkFFpCERERpEws+tnY2AgTJ04UtFptS7pgUKbFM1RXV4fw8HDs2rWrwQCZm7h16xaioqKQkJDARXbv3g0rK8u3dIsBUS9sbW3h7u4uYigoKMCGDRvEtLHI8OHD4erqyospnpiYyONSgDIbUHZ2NpRKpdjHiooKyOVyMU2RyspKpKenN8gzlAgNDRUBDRs2DIGBgdi4cSNn3bNnj0V7yixAEyZMwJEjR6DRaBr0b+DAgQ3SXbp0QUpKSoM8Y4nr16+LRSNHjuRxAsU2Bvbu3dtiUE0CIm1GYP40wg9fBL9aXgsSH4odMhV58uQJqquqOYuDowO8vLwasC9duhR2dnY8j8JDhw5xnjVr1jTgMzfRJKDy8nI+MwSmZ3tnsV4XuQ10YspwhJZlWFgYKCRydnbGzZs3edipUydMnjwZKpWqgfCFCxeQmZnZIK85iSYBNaeyxry0RAlMl37jedG9lAQ+OExNQ61WY/78+TzfxcUF1tbWPD527FjOU1ZWJlZHysfJyUlMm4pIBigvLw/JycliW7S/9JrMxbODmE+RVatWYdOmTWLe7NmzsWjRIjF9/vx5eHh4iGma2ZkzZ3I5MdNIRDJAW7Zswf79+8VmYmJisHDhQjFdP1JaWgonV0/494xGXsYhULo+dfN3wx+H+ohZqdlKfhxMnz4dfn5+Yr6hiOUn2ctadTod2vgEYObWdB5S2hTZ2CrQ2j8MFDYmT2c7RPX2FH8T+nqhtrYWJSUljVlfS0sG6LWa31LGOweoyT1048YNPtbfJhWilbOtOO4PnlRDKM/BnDlzeN61a9dQU1GGi4kreUjpxYsX87KCW2dFOcojO06teo7ctJ08JF59PTk5OZDVViNuf44o86yijsfpMO7Vq5eYbygiI5PVUAHlnT59GmPGjEE7LwfY21njybMalJZVwbeNM5wUL9SsMVlL8ytrtCgoqYCHuyO8WilQq9biFzaIx48fR2RkpNHqTc5QUlIS2rZR4N6p4dwUuZNTjogZyVDYyfDPJd3h7fHihDdaewsLikvVGPbXm6xtF5zZNhDBH7lxk6jz8FOgPrUYEB2Mcnsb0a6iipO2DsQwBipsfjpbgm8GUGmFGta2NiIYGhf6CKS+NLYnG4+ZyRlqzEzpIAbqLBu1zYezodMZXa2GRM3Os7KSYdbvOiIowM1sGT2jGYCYIrR7ZZSSYJcu7ti6rL2+jjcbaqsArdrsNpoEJLOyhbVTgNkVSs2orcpngH41u9omAZlT028n70K16oVqNYffEI+D3BbfxX9tqKhZef9/B6s5wyPFyJrTjjk872fInFEiHnWdBilXcnExLRcFxeVczNfbDf0/CUC/3gHss1uS7ftadySvVavVYcfBVHy7Ixl5BSVQODqxU57dSPIzS4blG8/C39cTc6d9jmkTwtiXqrSLRNLanlfUICJmB+IWHYHMNQAjZm3ExFU/wLtDV7i2CUSfsdvRfeifUW3lw3mIl2SkJMlmSFVbh8jf78T1O48xZNIyBPxmKDdXdDotdFoNmyENS1vBvW0I3Ly7wzMvFSlpu7nMD4dimVnzypK3BKBkgBatSUJ6ZgGGfL0SH37cD3WqKmT8axdyrn0P5ctP7GvfxbGv1E/xYbcv4dm+L2zsHHAl+R8g2XWLX9zNWQKGZCUBlF/4DPGHUxHcdxQHo6osw+nNM6FSFmHsiJ4YFB7I+3nuErvjO5UMZXEWggb9Be7tQtGu0xdMNhlxk8Lh59PKUjyQZA/FH74Cjc4aPYb+gZv5PyX8DVD9ih8TZ2Hbqih8GRHCfxSnPHsokZu6g/P6dB0FtcaKgbpiMRiqQBJAyZez8YH/x5A7uaO06AFyM3/Gim8iENr11c2NvreUt5yVPcm/jqqyPNjKXbjCSE7N1rNYFEoCKK+wFFbWNsjJ+B5ZyYlwdbFHVGSo0Y59xcpcXRyhLMriPA5uvsgvaHiVZVS4iQJJ9lCtWoPiWynIZT+itt4eUDBj0xhRmaODPTRq9mnAyJpdZanYJ7YUZHKG6CvRnI84FycFAnpEInLeKXQfPBPlyio8K33RWUOdfMrKiMfesTUvrlMp4erc8GnGkBz1pannS5MzFBwczG5D9yJm9kHIFcZHXK3Rou7pQ9gqXOAd9BnuXdyDDfEX+D6ir8/6RJ3asPMnpkTYmeTbk5kQAiqZrFymxdRvjtRn5XFBU8m+h1RQ1WqRX6QE9ckUmQQUGxsLurM+d+4c6ILdGCkc3FBSkMs6lgen1v5oHxqJzXtOwq3tJxgXHSOOKl0wHU7Yhy17L0DOZsfGVo5qZSGeMzl3P1/8fNPYPrJiJpItYmPj2C/WWDd4vslrLJOS9Qqrq6vRuXNn6BTt0Ourlcwq0OHWmb+j4E4yH9G+ffty7suXL+POnTv44KM+eFaYBYVLW1jb2EMulOL+/ftwcHCoV2vLopIAoqbpnZS9aCMwLBqB4TG8NyU5V1CQeQYVbAaInNnsfRgSCc+A3ij9dybSjrLLfGYS7du3D+PGjeM8lv6ZXHLNqZw6RA9V69atg6ryGYI+nw6vwE/5r3E9mtoqFN4+x7CoMW/ePMnAUDuSzZC+0+vXr8eyZcugk9mhXfAgtAnoA0cPOmAFVJUWgmbtl7s/wkpQY8mSJeIVsF7e4pCugqUm9mLOHSpat24tkHMFR8MQUZzy2NIUiOdNkOQzVH+E6dkxKysL+fnsKooRPVZ17dpVfCSuzytV/I0CkqqTzanHpFJ4/Pgx10D6V2xDFdvb24Meejt27Gio+L+eZ9L0oUOVfBTIY4S8PciThJwjioqKeJpepk+cOGHRM7weMT1hNn7i15c1JzQ5Q2QdLFiwQFSrZEfRw3BISAg/c6ihHj168Cf65jRqiJde0MnJgx6GLSGTgLp16wb6maJ+/fpZDKi4uBgrVqzAgAEDTDVlVplJQOQf0BSREx/9aL9t374d9IRJjhLkHzRkyBAcOHAAx44d48uJHqroAF6+fDkIRFxcHF+6M2bMQFpaGn/eJyepuXPn8plvqm1D5Sb3kCEBQ3nkVkad6N+/P99z5PYyZcoUHD16lLu/DB48GLdv3+ZP825ubiDbj9xiCHCHDh24E4a3tzdGjx7N/edoGbeUTM6QuZWSLUY+BA8fPsSjR4+4EmGHJgfEDlFuIV+9ehXkD0cKhR5+yTXzTZDFgEhxkI8ceVnRyJLioJCWF/nwEJE2JHNo1KhRoBdvikvhvWhoQCwGRG+epG4pDAoKes0pUN8ogSJLgRxvDx48KL0N97Ihi/cQKQB/f38+8mfPvvJHePr0KeLj43kzNTU1fJ+QkxK5ZJLjEimBN0HNAkSOs3QAUgf1REsnOjoazPDE1KlTMW3aNKxevRqTJk0CKQAi2ju06ckdkxwvHB0duWMTgSaiQSH3stzcXFy6dAn1vR05Q3P+zLF4GQCBeRoKzAtYYF6HAtsjAvMNFZ4/fy6Knzx5UmC+pAJbWgLTXMK2bdsEthSFtWvXCj4+PgIDKTBjVbh7967AlILArA+BXKWZ9uN8TIVzS3z8+PEC884S621u5J0zTpu15Joz82+L9z2gtzXy5rb7zs3QfwBzIOzdoNKLPAAAAABJRU5ErkJggg==;" vertex="1" parent="1">
          <mxGeometry x="623" y="523" width="33" height="41.88" as="geometry" />
        </mxCell>
        <mxCell id="tqYmkk8fS8SQap67BdXh-32" style="edgeStyle=orthogonalEdgeStyle;rounded=0;orthogonalLoop=1;jettySize=auto;html=1;exitX=0.5;exitY=0;exitDx=0;exitDy=0;entryX=0.5;entryY=1;entryDx=0;entryDy=0;" edge="1" parent="1" source="tqYmkk8fS8SQap67BdXh-26" target="tqYmkk8fS8SQap67BdXh-27">
          <mxGeometry relative="1" as="geometry" />
        </mxCell>
        <mxCell id="tqYmkk8fS8SQap67BdXh-26" value="Audio Decoder" style="rounded=1;whiteSpace=wrap;html=1;fillColor=#dae8fc;strokeColor=#6c8ebf;" vertex="1" parent="1">
          <mxGeometry x="298.5" y="79" width="79" height="44" as="geometry" />
        </mxCell>
        <mxCell id="tqYmkk8fS8SQap67BdXh-27" value="" style="shape=image;verticalLabelPosition=bottom;labelBackgroundColor=default;verticalAlign=top;aspect=fixed;imageAspect=0;image=data:image/png,iVBORw0KGgoAAAANSUhEUgAAAKYAAABgCAYAAACXOQneAAAMPmlDQ1BJQ0MgUHJvZmlsZQAASImVVwdYU8kWnluSkEBoAQSkhN4EESkBpITQAkjvNkISIJQYE4KIvSwquBZURMGGroooWAGxI3YWxd4XCwrKuliwK29SQNd95Xvn++beP/+c+c+Zc+dm7gCgcYIjEuWimgDkCfPFsSEB9OSUVDqpByAABRSgAYw4XImIGR0dAaAN3v9u725Ab2hXHWVa/+z/r6bF40u4ACDREKfzJNw8iA8AgFdxReJ8AIgy3mJqvkiGYQM6YpggxItkOFOBq2Q4XYH3yH3iY1kQtwKgosbhiDMBUL8MeXoBNxNqqPdB7CzkCYQAaNAh9s3Lm8yDOA1iW+gjglimz0j/QSfzb5rpQ5ocTuYQVsxFbiqBAokolzPt/yzH/7a8XOlgDGvY1LLEobGyOcO63cqZHC7DahD3CtMjoyDWhviDgCf3hxilZElDExT+qBFXwoI1A3oQO/M4geEQG0EcLMyNjFDy6RmCYDbEcIWghYJ8djzE+hAv4kuC4pQ+m8STY5Wx0IYMMYup5M9xxPK4slgPpDkJTKX+6yw+W6mPqRdlxSdBTIHYskCQGAmxOsROkpy4cKXPmKIsVuSgj1gaK8vfEuJYvjAkQKGPFWSIg2OV/iV5ksH5YpuyBOxIJd6XnxUfqqgP1srlyPOHc8Eu84XMhEEdviQ5YnAuPH5gkGLuWDdfmBCn1Pkgyg+IVYzFKaLcaKU/bs7PDZHx5hC7SgrilGPxxHy4IBX6eIYoPzpekSdelM0Ji1bkgy8HEYAFAgEdSGFLB5NBNhC09zb2wl+KnmDAAWKQCfjAUckMjkiS9wjhNQ4UgT8h4gPJ0LgAeS8fFED+6xCruDqCDHlvgXxEDngKcR4IB7nwt1Q+SjgULRE8gYzgH9E5sHFhvrmwyfr/PT/IfmeYkIlQMtLBiHSNQU9iEDGQGEoMJtrhhrgv7o1HwKs/bC44A/ccnMd3f8JTQgfhEeE6oZNwe5JgnvinLMeCTqgfrKxF+o+1wK2hphsegPtAdaiM6+GGwBF3hXGYuB+M7AZZljJvWVXoP2n/bQY/PA2lH9mZjJKHkf3Jtj+PVLdXdxtSkdX6x/oock0fqjdrqOfn+Kwfqs+D9/CfPbFF2H7sLHYSO48dwRoBHTuONWFt2FEZHlpdT+SrazBarDyfHKgj+Ee8wScrq6TEuda5x/mLoi+fXyj7jwasyaJpYkFmVj6dCXcEPp0t5DqNoLs4u7gBINtfFH9fb2Lk+wai1/adm/8HAD7HBwYGDn/nwo4DsNcDvv6HvnO2DLh1qAJw7hBXKi5QcLjsQpDvWjrAAJgAC2AL5+MC3IE38AdBIAxEgXiQAibC7LPgOheDqWAGmAuKQSlYDlaDdWAj2AJ2gN1gH2gER8BJcAZcBJfBdXAXrp4u8AL0gXfgM4IgJISK0BADxBSxQhwQF4SB+CJBSAQSi6QgaUgmIkSkyAxkPlKKlCHrkM1IDbIXOYScRM4jHcht5CHSg7xGPqEYqobqoMaoNToSZaBMNByNRyegmegUtAhdgC5FK9BqdBfagJ5EL6LX0U70BdqPAUwV08PMMEeMgbGwKCwVy8DE2CysBCvHqrE6rBk+56tYJ9aLfcSJOA2n445wBYfiCTgXn4LPwpfg6/AdeAPeil/FH+J9+DcClWBEcCB4EdiEZEImYSqhmFBO2EY4SDgN36UuwjsikahHtCF6wHcxhZhNnE5cQlxPrCeeIHYQHxP7SSSSAcmB5EOKInFI+aRi0lrSLtJx0hVSF+mDiqqKqYqLSrBKqopQZZ5KucpOlWMqV1SeqXwma5KtyF7kKDKPPI28jLyV3Ey+RO4if6ZoUWwoPpR4SjZlLqWCUkc5TblHeaOqqmqu6qkaoypQnaNaobpH9ZzqQ9WPatpq9mostfFqUrWlatvVTqjdVntDpVKtqf7UVGo+dSm1hnqK+oD6QZ2m7qTOVuepz1avVG9Qv6L+UoOsYaXB1JioUaRRrrFf45JGryZZ01qTpcnRnKVZqXlI86ZmvxZNa5RWlFae1hKtnVrntbq1SdrW2kHaPO0F2lu0T2k/pmE0CxqLxqXNp22lnaZ16RB1bHTYOtk6pTq7ddp1+nS1dV11E3ULdSt1j+p26mF61npsvVy9ZXr79G7ofRpmPIw5jD9s8bC6YVeGvdcfru+vz9cv0a/Xv67/yYBuEGSQY7DCoNHgviFuaG8YYzjVcIPhacPe4TrDvYdzh5cM3zf8jhFqZG8UazTdaItRm1G/sYlxiLHIeK3xKeNeEz0Tf5Nsk1Umx0x6TGmmvqYC01Wmx02f03XpTHouvYLeSu8zMzILNZOabTZrN/tsbmOeYD7PvN78vgXFgmGRYbHKosWiz9LUcqzlDMtayztWZCuGVZbVGquzVu+tbayTrBdaN1p32+jbsG2KbGpt7tlSbf1sp9hW216zI9ox7HLs1ttdtkft3eyz7CvtLzmgDu4OAof1Dh0jCCM8RwhHVI+46ajmyHQscKx1fOik5xThNM+p0enlSMuRqSNXjDw78puzm3Ou81bnu6O0R4WNmjeqedRrF3sXrkuly7XR1NHBo2ePbhr9ytXBle+6wfWWG81trNtCtxa3r+4e7mL3OvceD0uPNI8qj5sMHUY0YwnjnCfBM8BztucRz49e7l75Xvu8/vJ29M7x3undPcZmDH/M1jGPfcx9OD6bfTp96b5pvpt8O/3M/Dh+1X6P/C38ef7b/J8x7ZjZzF3MlwHOAeKAgwHvWV6smawTgVhgSGBJYHuQdlBC0LqgB8HmwZnBtcF9IW4h00NOhBJCw0NXhN5kG7O57Bp2X5hH2Myw1nC18LjwdeGPIuwjxBHNY9GxYWNXjr0XaRUpjGyMAlHsqJVR96NtoqdEH44hxkTHVMY8jR0VOyP2bBwtblLczrh38QHxy+LvJtgmSBNaEjUSxyfWJL5PCkwqS+pMHpk8M/liimGKIKUplZSamLottX9c0LjV47rGu40vHn9jgs2EwgnnJxpOzJ14dJLGJM6k/WmEtKS0nWlfOFGcak5/Oju9Kr2Py+Ku4b7g+fNW8Xr4Pvwy/rMMn4yyjO5Mn8yVmT1ZflnlWb0ClmCd4FV2aPbG7Pc5UTnbcwZyk3Lr81Ty0vIOCbWFOcLWySaTCyd3iBxExaLOKV5TVk/pE4eLt0kQyQRJU74O/JBvk9pKf5E+LPAtqCz4MDVx6v5CrUJhYds0+2mLpz0rCi76bTo+nTu9ZYbZjLkzHs5kztw8C5mVPqtltsXsBbO75oTM2TGXMjdn7u/znOeVzXs7P2l+8wLjBXMWPP4l5JfaYvVicfHNhd4LNy7CFwkWtS8evXjt4m8lvJILpc6l5aVflnCXXPh11K8Vvw4szVjavsx92YblxOXC5TdW+K3YUaZVVlT2eOXYlQ2r6KtKVr1dPWn1+XLX8o1rKGukazorIiqa1lquXb72y7qsddcrAyrrq4yqFle9X89bf2WD/4a6jcYbSzd+2iTYdGtzyOaGauvq8i3ELQVbnm5N3Hr2N8ZvNdsMt5Vu+7pduL1zR+yO1hqPmpqdRjuX1aK10tqeXeN3Xd4duLupzrFuc71efekesEe65/netL039oXva9nP2F93wOpA1UHawZIGpGFaQ19jVmNnU0pTx6GwQy3N3s0HDzsd3n7E7EjlUd2jy45Rji04NnC86Hj/CdGJ3pOZJx+3TGq5eyr51LXWmNb20+Gnz50JPnPqLPPs8XM+546c9zp/6ALjQuNF94sNbW5tB393+/1gu3t7wyWPS02XPS83d4zpOHbF78rJq4FXz1xjX7t4PfJ6x42EG7dujr/ZeYt3q/t27u1XdwrufL475x7hXsl9zfvlD4weVP9h90d9p3vn0YeBD9sexT26+5j7+MUTyZMvXQueUp+WPzN9VtPt0n2kJ7jn8vNxz7teiF587i3+U+vPqpe2Lw/85f9XW19yX9cr8auB10veGLzZ/tb1bUt/dP+Dd3nvPr8v+WDwYcdHxsezn5I+Pfs89QvpS8VXu6/N38K/3RvIGxgQccQc+acABhuakQHA6+0AUFMAoMHzGWWc4vwnN0RxZpUj8J+w4owoN3cA6uD3e0wv/Lq5CcCerfD4BfU1xgMQTQUg3hOgo0cPtcGzmvxcKTMiPAdsivmanpcO/o0pzpw/5P3zHchUXcHP938BENl8RyOUelgAAABsZVhJZk1NACoAAAAIAAQBGgAFAAAAAQAAAD4BGwAFAAAAAQAAAEYBKAADAAAAAQACAACHaQAEAAAAAQAAAE4AAAAAAAAAkAAAAAEAAACQAAAAAQACoAIABAAAAAEAAACmoAMABAAAAAEAAABgAAAAAIPnr1wAAAAJcEhZcwAAFiUAABYlAUlSJPAAADBjSURBVHgB7Z1pjF1XtefXuWPNZVd5npI4A0mwEzISwvTozsDLA95D6qYFX1A3jZAQEkjQCAn4wgdoUIOgkUDwEI8GiUYg3sCDdALkAXkkAZKQidgZHA/x7HLNwx3PPf37r3PPrVu3ru3y7LJr27fOufvsYe21/ntN+7gcRBRbKqfNgYmJCevv7/dxHnnkEbvzzjtPe8xLeYDUpbz4pbVfuBxYHMBc0ukXLoLOEmWLA5hBy+oToCbXlseL4WtCenJdDDSfSxoXBzBbOZIANbm2Pl8E3xPSk+siIPmckrg4gWk1s4tB1VwMazhLcF08wJwjxJRFi1jVRNpYKot4DfECzt7PYPGki6Ql2UcSJhmu2gzXbrPUBSLdWq1m27dvd0lt3rzZOjs7W6QmMM7qgSRLF9QCq6WjC2YdLUSft6+LCJizPCpPV23voxN25V0Di0PrSNu3akfqasWaHd5+yNbetG7+89nlXpJ3s1v4Al9+syWvlkMbPTDdEKa0jz7SWhdkaQUlREKx1SqRHd05BEL5Ww0vCrf5TPF/0QCzWbZRLbKZsUqDB0EQWHF/1Qpj5XrdMQDajO5G7zNxU5/vJMYXzVE1sqmRCZt5atTKheo8pSrKfEj9aB67+b6V/JZnLV9bW8ffF9QoXmPigrQf6MzVLgpgtvJNwCxMxMD0Z1Fok7vKNjEy7ZpTHltrH2dZE7oXxOC2g7Rjfp2NTePPJWD+RolKYC00K0yXrbCvaJViGcVJhUrTvD6kfjSP3XTf1NS7zmnX0i1u0Oanjzefxrkt4zUq6Kw1Ezi30Rn7duECs4njTXLwhUdhZBX8TJWAdpGlrTIemnxPq9Iaibf28cb1H3o7wPvpxksilORarz6dS52AeIZZNkfQps/I749YrRBZOFO2ygSgLNcsKKeNPbfAjAO0ah1JhH86tHrfJhrnjQUUxSumDEIWJiLPcpml5ixPtPDhBQ5xQD10P79EVEcFaRfdRIZVtOo0zCuY7fzNUfpiJhugm99f7SX9qJFzStjAtZnnTsP8/seribvP0t1uCGmcmf0zJq1ZnQ6tNlWxjnLedvzmJUs5bc1EtJ9NViHmUUz7vB7zKtqPk9Q2N29HcwjTqyMVG911wGSxznZJJHK25znh+AmQBBYxQVoFxejXOZ1Vh9zLCJWHQFMAo20R7VNO2cju6Vhe/nguA5M5NN7UrpId2XmUOaqMQTvGrBySMZ0FldqdTBHQwikFYfSaO7UPo/l9rihjNXzkqBxZtYRLQnQelQIb3n3U1yL/c34RTxTkAWbnT9n5lLSbozk1d7shksYtV4VdtVArb0N0va3ScrVJNP2eg5ZKpVtGOPNfLwhgOh/rwhDACq8i15mUpRFwFMVMaLAMhktA1VJoM69WbXoYNUmpIuQIGU8dJgAi36n8YCB7rZJ0btKk5aMVmxyaNBtj/BpCqdbs5YcOWjo4hn8aj3SMnzFoKtMV2/HoKwiOZq3AgAbRE5TSVjwyg/mOgVkj6KnyMegvjE9aeDTFBqNxQnNjRtYE/SGbMBhn8CLfZ2YncQ1ab9swBI2+x7/RKAGbOijNm9Q71ur510g8H5lqQ9vxxz+Vp+cdmK4FwoqnenRfnCzZjscP2oEnZmzsMCmhREKuLeK0kLRGSEQ7gdabHJuJBVbC1JQDK49XbGJH0Yb2jqIB6oKrX5SiSbRRiJYqk6R/8cH9Xqcxp17VfIAMlXdyqacYidWZ0MYPjbTXPE4DoMMFeeWxHUQ96Cn2VFiuojkBXKFmpdGCzfx5xEJM5vCzh9vKE/hY8ekjVj1Stpfuf8bZg9K36t4p37DqVF9u2/7HqqwSgO1/bkdbM+2r06Zmw5QnCj6+5tTn5Ph0rNnn1593YIqksBjY+CuxzxiS25s4XLKpgwQz7NC6IiVYgTFyvCV2UFStVK00gjCnyv49lBlF2AUCoOKBMmmY6fg0pa4E1Ee6UFcxM5zhOs1ce0CHmK5If1hjSdMi/iqtQ1T2gv0pxmPMwmSZeY5t6pQimj44zsZCsNLyaKmq/OWKNkrZykdLFk3VbOcfX25ISzTz1+mREQiPAOqpqo29csTbRPDs5V8+G2/hpvU2BjjBjcasjZfQhhPxJm3XXjwqVZFVwecJR0M7+NSLgPRUtkG7CebWnTtg1hmWTO9+IZoSsWDCKvbyEwdtZic7H002PVyx8mQVYPJcDiWlPFO1/X8cg3EIXeDCYlcQYMXBSzSLkKtgrALzKuM1K2IeNUfMtxjMhT1VG98/baWDCIJ5qow5M1SiCSAEgCXoUKJbzu0rvzjkmqxMUHXCIsEK9LgSlelSe41ZHwSvwYqAoIaGtwoAY65IVw4NZNaNCD1ibVMHJhgxplubpTYqEAf26r/vcm1bg/bCMGZVhTHHXh2DL7QH+KIjwiUSYL208D6unP0pn14ZgtIUDFRb7YKmom8CrzZRWIRH3IeTFfc346YxnU1dZm/nDjVbf4K7cwfM+sbS7leJ0EhBOeOgqGDOpgHIvqemrXI0ACBoQ4KIEKFJe6kImLufGXYhiDMSQHlSmhOpUNysVAIHdnUCjeiAZZf7U+ZinOk9ZQQ4aS/c/yoAFJMBCb5eTWiBLs0RlFIupNEXSXwfLtqOp3b7CG1/NDG98Hyc8imTl6wd4UGiaZva+BjSjFNoRZ30sIkCfNsI7R+RLqoVQzYLmxEAFI4qiGPDCJQgb+axQ2jKsh16ahcuAOunb3mCBagwx8zQeKzlAeWunz1tpW0zdvClPfTn4fGUGvsjUCAmbc3cKom741/03Sv5UWXTF9jIrMHgb3k83hi1Anwfxi9qWWvL12S4BV3PETCldeKPazHup4aL9vyvDzsTQoRTgDkzRyU01oy/VcXMhjAgChCY/tBmmoBl+KmiBwgCtlJEVQTET5iGfgFfChzKCK5ckLaFNWhN94O4V66zMBba2N5ivPsZP5Sfh8lWU/WderVsu588AC0kvUdCmz6st0XqpZXTTQLf+5t9rukEqv0PHHRN3g4U0oaVSdajtbGpdCzpeXWu0qI1/FSZaYG3/IosR5Fgis1ymA2EyZ85PIk2VBaiQgDFOiBctBcBSfG5SavsK9jQ9n1WO1qgjsW1K/V1QIHYYzv/+U/QLj+XDYOYEivV3NXbsnkyuFMjv37eU1zlacbXSyjwddejT8Nn9a0PzqUB6OaBFnh/joAZExxVpI0IAFi9juBGCDYmtiOMaYIWhFVCA5YxQRWZISWfEXJlCC+GiFGgK01gincVbXqUMQBqTSkjGFU5wo4FXEpSy4zJf9R5uqElq8MwfMJs78OjrkWrU4BtRNpNWgc8A4QUiW1pXLkFlSHMO5umjJsQ4hJMjSkgOk5BAHIDpji7d5qZd+YgUXdZ2geNLUHVZaVRBEzXlJDnhwEhawOU8mflRtSKbLRC2Uq4McVnhqw0PG3VgyWrjkMzZr40hpaU2VewRzsXP4Co4UKEajc6bpP4sAJLJXmuiZtLfUPJPMttmdR5PRslYMzRh150N6m5ue7dl2Tzp2k/8QKbEMsQoWHL2w5bCE3TR0fd3De0bdOmbR1rId/PGTBFsKLs5x4kD8YyQ5g7zdn27semrYx7VEL7lWFmlRQIricARYDjXfbsL/bZwd9NWYUgdQazWxoKidxjSZfxE1NTHfb0P+0l3GDnYhIVrdcEbtwDbf+xv0zbwedHmGfIgVPGRZDmNGlKmXP6TL1MFP880SbgCCcYH7pkJhUcybwLWNIswGc+TyUAqjWmouyIQK5C/xBtGKDtXVBNQqrJpwR80pIy527yZa7drOvK5mJTBmyy6pGi5Qta35/8ew2/W1owYm0h7Sol6Hx+BgsC3fCsNoo1IWFfHSd5DyhD+btYCKdflGsd8UXfvGhdxcPjDrIM4Bx6Yge0ybq1FPVlA8r1qB2dZJOgydnIw79He46h3Ud1HEyfRlepz5YxTuLrWQVmQ61DkExEiR02tFvpHTQaoCiOAYrDMHgyhQbVc2kt2rpZow3Kamj3FKa3jJZEKyqlMgFYFJAgW5N2LKbt6Ct1psBkaQBDkUij6v3H4iFcBIAyiTapAfaazCfj1Ogb4ZMKnOUjVZvYT6QsrcXYbmoBmAICI+DY/8sRxinbAVI4iSvSzHQ/IsXkOjAZv4JGVnahka6CkkbRZpDGE0McmIAqhGBhVRqTZxHaVkCVlozYGOO7h/kO4ABahIuioMmwJtKclR0TaFRSTPSJ2EgV6ChPQQvryBWztv0HD2NtADt2tgqwlEiHAtfkiXyqas/4KcYsHkRLYJ5kuvVJ2jjK6Cuaw0lZB2imT3HfURLvJQJRxoD34WjNdv/2KTYdu5G/s/0bHFjQzVkFZjMFRx6Dsax5+qhQQxTNji+S354ZUYoFJrhpBXwKAmgi4FSm0zZNaqRwlIhxjEUDlIJMrLQKWiZk8RXANjOMtgXQ8nFUV6Z/qpi3A/8+5SmcIr5iifSG0jkCZwVzXvU5JCh4jcYpKiKnf40NonN4n0Pt2Sz7Ht1HJF+xnc/sprHMfqwCY5CK+VQrCyCwiCbAFOEDBgA/BrA2Sb1oDrkc2gS6982EofQrQND6pZXqmyQEnMUjk7HGBAgKkEygJxDxAG4IukmZpQQ4ApgQ39SYW/NnaDu246CF++HffsZgU9sY7g0ukQADC52+Wr19IJ6PTVmIshh/Ef8fvxMdmVAOsaTc5FPKjLNJAnze6ij508kCfOJllN9st+qhGRvetstmHt3lm2S288ndnXVgKvCQALb/ZsZKRNxFhL7zQcwRDKpgVosz7GR4GaKZqgIcmqPG4qVxQp6VFQhgXsuYKOUqTcBCQHK6q7SRz1YGaFhNBomjWGnLdClr2369F0EyPsAvkd6oaEzmcK0hYDKX73I0jYIvBVDud6JRPfASwDFvUwcqCAAahqv20g/22czekm371Y5Yq/ggzC3aoEEnTsoIZIY77Zl/ecYKfy5AL+OxMD9qZRplFAQ+T+0IIPK5pSll5vGZpVGlQRXkREqbKYVE+9C1pQAJsBzIPCf1JI0nkEZsjhBNKx7KZzQ2SJHTrfILEzb24iF75u8fIFqftl2Pb4/3C810E+AaSEtLE1cBWGX3pB15eocd+L+PwG8icZKuDmSA6b6oaMUHDkQH7WuceKWZd+zxlwDmGBt9ymb+uA0XDcWghO3sbJpxQeX0gQmtc4p/F0pUQj8i3PfHgk0eRvjDCGQqsL1/xDQfxulHu0gjCXAuKIAgUy5gibmh0j8y73yKmKa4DkbST4T7VLRTPlNWRoBOSQ1wH05nbGI3kTWgq6L5dLLiSXgfl++0ETAUPFW1OZTkhmwBWdo8kEuArIJKFm3NpkBrK0gbenrYyvuqtu95TowKafccpDL9RV9fB4RVKmidyA4/d8j23L+H/gU0DV6wkvaaH22oo08WyksbotksTeStq0yu6NJGk3mtKH0Eba6lqRfwNKn86TRrjTDdOlhIQb5BdxWQhNLIgEx5zwpzh/unrIp/P8Xb8uGBSSscHrMIWehIUwCXe2OMZ4wt7VkbmraQz/ifd+FLQiP8hzrmxaenacT6ZJbkb7p5ArwZ5qwe5LRtRJoZmg6MWWqkaAEukatmrQ0SF1oyC214rHbCAfDisbQVDONPoJ2lOr6PwpRtvx5j1w9ghnk9jZzX1OHQejfyIgOmr8q/d3HHXdGpGM+adXUzx/NQaQzMfJJWkZmvItCQiaWs9FFSXjhSpwjEyTyqXXEURss0w02ZzwpjIU0eMi79JH35eiGMl99Zpb9ciABaBB7NK3oqaO0I7V7lJYbCIfyp/WgWUlfP/e+X7Jr3XGEjr4wxDkKWjygfjPlDwFw4UrACjmdwIGvP/Nsztqq83LrXrnKtWoMG9eHftrCPZCGYQ2wU6LQYaUiZdYQeSnNCsL8ax+ZzLUSbkIUqEKrKH4Ze3XtAJaK5lw8qrVvjGLGaJUAh1VQjKd+ZCeyZ//WPdu19/xFLccg3oRL8KdFUQTtzelXjeLSMv1l6dtT2D++wgaDLcuX+ONEucEKbovpAG6A4A2ChR74nZt7kUhCAhnsJdh/5V9v6X//OohxtYb/87hQd4+hdQqOyTTlNjRkTJ9YKlCF2NRqD2WiHFC9fvPxPOOMHyXshSM8tAgCZ7CJBTQXNWasBZgciC0UoAqPIDPSPzrgTGJXvq7JIgTiEcVUJjivT+ceDGL6kEZiiRtVrT8gUVuQKCIwCMyDTQ2nmEC3p8zC/NKP82wpaQFpMNISYKBUBLCUaEFoVYPrZNq+o1UaZYtxs+LkRK7zAmfW/vUTfDODBB0vrpRCAhnAE5pDAq7KryonNHht5nHN0sgrxYmN6RHPKF6Nq5oAACdw3uTaZrAd1ivJdm0JfpLXW+7i/CY+oYV5opY+Ob0WDwK3kvelECXMfok0jXBrD9ZncdsiqLw7b1O6hWJHUx5Omlg9pfKoENeEelArB18H/R0AzgQBhbiT+IDDRLUXApJZiLvMADC0pX5jgqAawZ3YcsklcguoBmEZTQwHI3YFaFxOXtuXkNaZGlFS9ACC+l14ILLeB6mrW/uVTE3bTf87aoZ1TtufhrF3x+rTnKPOYZQ9woF95yjJAc82YhUg0pAtCvGXNPjxCVm5SPpfAIi2iBWlxfp7Ni4sp6qUcPAJHmj4GwtEAOhkXsH3ndlBFtftw8QuPDEh7/6MxNJbOt+PxpXE1lmTlAubq/i1A1kap4BoEbibxW/eS+CdvmavlJSvGiUEjjSJTqjP98hB5TRL25SxgnUG40q6ikfZaSyMKYTrHBz+ohWZcBQekQAk90sj1Z6Jfpl+nMeJBDEb6wS89E9N0ouW+J/6g/iWmzH/Em/KBon4FLJjrEr6SJ9ShRev3e80p+jHXNdJTNU51akMEOYAbTvGHOZCZ5nFNjcxiZVAfH7B6cEfaKs1LNsU/bLNg+TLbf+AR6+X0quuemyy7ZhnrSVlmdYel+yUgzT9bTh6YjQHEVdIx+ED/8D9G7Pq/4Xz5LyRb92yy3X8uEcEOW3p8jc3IBAKQjIRNXy1MfpYkINUuYPuQrt7jevHI5cUPgbK5SBbigq4SovrKLLhfJr9N41PvplKduY+1i8xmch/3izeDAChtzPEg44gmB6U2Qb29QKEgTmkuzSyN6gGWzL18MgSpdalobr/SR0L2sdG4HoQBFCXeeeKnOQn9riWdGfFaQgSrF0Fq2qWiweeGHq2zPkFd5zse4ntmZU75rPExLm357oW1aDlOXJ0ntSpoxtyHXB2M6i7tpy7SiNy7SyatC5jDUt2BFj1qJ1poGpMteutS0fh6oiu7WQFSjTxguGO/DT37F+sJeqzyZI89+ecn7Op8v5Xffattuuf1jCMCZ8vJA7PRF1IYK9+VsTs+Ynb5Df12zd1d9vPPjFvvlTnrw+8oPBtZthNGsVsD9+zFGxbMrM5MMZH6RJjJ0HomYApJ6Kh6dSx4fYlf5Ih5KBq8pCW0+njUqX9KQHXAM4duNV+dAYnM3G2gLp3WeToMrxexPW6qCUS/AB/TpfctAzRvxCfI8cXnVl/aMp/gKzGp6Jvh00VZXVlPNkst332BjRZN3/W4PmedVqebatEs4Klog/AV/kC3I5xvzB0XXevmXbaZTwCNThNtI9GRgQ7W7O+u+piYZtwQH11rpU7rE+KiLALTR/xEXlp7PD5VmlDvzKq91kQbSc2HTGWJIdgUmYylLxuwyakBm57B2dyyxtbfeK9l0jnr3ryuPogGmi2nCEwxHSIpIvKme1f74GGYtb/7nxlbvjptr7tv0H71Dztt+arlln8eHmBiMrl4oek83/lonc5KiBdPtUgxkCX62CndZ1mkrKwALGZTJ63hAlI9QhcNMTUxGNQ9JYEABs1jvkru1V6ziAzxEkbqmkJQ4qlrWbWQDNSWQf3lXuZMMU5EEBVk05bupEEeK9CXxiRlLDuIkPX6pAMjXkiQJ99Jn1wqYx2DeUsNZPzN70yeF1ckNbSn1u/kaFPIZxPiWUuaNTvsGE/Ad3nTR7RG1Ik7osu5pPXTHsNNJUEbz/R+gcCYYtxI/k4OwIlv4mVH3mp8r6FQUis6LVfqZhzxRFzHumnQHDR2ZGlPv94c2j6PKe60oKvDwVdz1GkefTQ/Lodkk2F8jS3gak09nVbty9vMZeut5+YN9tb7bsT3Llq2r9NW5RkfOToPmLK1nCIwYxg0BoMOFU2yYgPEK6cAY+7575vtVV587QK3CmDSHfoElu3CJ+2EKDEPH5ON5Uz3MQQICYSx0nom0MH8TB7GcUXOnlpxzcu8qYwECnPoppQLncVjB1cabZ2in0Ccpp8L2AGHvhFD/UN/NnHaAUBbngfMo6Jxaq7poBm6Bc5UF2BcTt9egLnMrGNLxtaUBu3odqIhja0CqjNdLKqLew4TgqvS1jPEL3XFngYr4I8GhlRfm5Os7wRMEpTgwVVZh3SGTeAfMhhocwHNBa4rYwik6ofqoRd1ACPFOoKYSWgqHIIsoOqEFjRk0MV9D0ADoNnNg5a5ut+6RsgauAmI+ZFGowfQHrH50rTNbOxjE/ZZOADdPV2Cv9NgaMGIfoF2OzTUoKmWoy9gjDpYc43+6/Ajpwbtsv92n6W6eSb5QYvW7XvBpaYRxYS55RSBOXcQ/+Y8Yjj+uiPO3FG2Zj1rc7bhDoKhEcDYw7OOinWuYFNyn0KDpnOwlI+AmAEgAqEELFIFmCAfAmaucgcEWAFHKR+KtICElQHwMtVKv6ivQJiiT64fgHBVblNzSF7SwmnQ59pHfhBMygh0BCrCizSwUkoSVhp5BoAx35kDkNz3IlC0Y3oN7fen7I733wZIU7Z19VZ76P/83jUy8RHzAxDmzg/ksYD0XWP2Hz7wNiLXtM08Q8SreSRMVonedG0pwGnRWoI0p2tNaHVXAS2UycIMAKVNpjZqG7CIoCMD/QidercutGEA2uZi7QVIUsvQ2Lm8ZVZ0WWqwi3/FEdiWj9yDth+0laUVtv3vf0lfAY0xRTtaMiqwzpU9lrl5pV0R9Fr/smU2/bO9tIH30CVanF5dmStCiWR6OwA1wMcqpDKA+PI+e93tf23ZfjaEaFZBPo3idfRvUxDVGSqaRHjRVTsZqhEvGrTfBtd3268en7bugcg6elI28LqKdaN10rkQTRQD0gEt4AAGFyzmNQ1wM2jXDL8GKEe/TF27Bly1UAE1hUZLASwBVkCXTHwTd9bIlQIM+mapTHXRH5AhyljLOtDRNIyT6mYO3nzSvTZBRv5UmpMNxouI2jKAL7WSOUj1dF6btdzlGeuf6LX8SohlPPmPAr2bQAAWoMFSa1LWd22vda/rsdwytIc0GeOJzjTg9yBGMnF+cZHARTsaS5bBf59RHpplcqHbWLM0o4CaxnSaPrQP0ESpbsaWZgekKcxwpA0FwIz+WUCWWgkgs9PWceUKtFgXR5W9tvyq1TEQSbLLFMvc17gG9E8NdsInNEd6LRFz1vo6uuCNNjHtfAPQDjDWxGxpSbRrBbpSA3307bVUXwc0L/MN0bV6+SwoWcZCy5kDpmYUk71AMIUlu1YDCrbm9qJ1LMc0dKbs5r9dZfv/MsI9gAAU+MDuf6Z4Jg0a4Bel2IkJIHN9MLguINVJk7nvBPUB7fO9MFM8S8cuhIQf5Qu25g1oimH6ApYsAnS/lgjCNQt9pUnlT2Z60OaYnpRMHyB3dwNwOCCgLb8augfRgMtydtt/2co4gb1+w60wnP58Qmlw0SJAQIOehysqdsd/usO1rbSMNhJPvZ3aSmNmAYOqlamS5ndT7WunVtoSfqR6oBtBC4ju28IXtasB0prGlWbGPEaYCfl34qF4JyBHuB35lf2WuZ7NQfS95bq3srYuW1u7nAmdGmaniA7GF6jTaLzs5m7rHFxtl7/mSjZ9rEnVwfmqceWDAki/Akq5CiGbubZlnaVW9Vo42G3lzWuxMNpRp1bEorNbkBl/bcvdg/xz2SnrIgiQVkp3pCzXF1gHflq+V2DjmI6AQn6lgCrNme1BQwGIjoGUdfYLMPAQDZqir/wUAVQg6hyI70MEJVOdQlPUcjW75R3X2J4fj1oejZKT1lOGAD8vjfCkPfUWUxr1Ko2oIMV9VWGgG0Exh8x4wPh9ryXAWZe2VdUB/C6HEhYfNNWLQCfNZtAjnzQ2vxFaHhNHUJO8ha/m2ghphCjfURpaABUNArWDReBC8AJvijEz/TnLYYJ9MxFQpTDbAp2shtye1EqCkj5oZ8wAqxJ0oyFdiwEc8eay5Zbb1GkrU2hBCJWmHggGfV7Ro52R7pQfSlDEoUe2vwtXpdOu2Pwa6GMe6JMB9FBL/dGS6W7as9FDaUmCG2lI+ZUb/+YOXCJc68tW2Ya7bkOwDO/W02c6qR8s/wwVoU+MbirSJoiKau1iBRCYwA0wjFqZs1x/yroxeQ5MaU+ZbC1GQpFZ7oqsb1POOtfTBgDLF8zhi0srSIju43dUrXcT5ox/deFZC+QmLer+KXPkVxExIqjOVTCTsdM6Z8ese2DlrgAgpU1PDgEjBJnFTC9AgRZprIAN87q/vcG1xXVrX+Ma0ifXOutr1jqz3YBDwGedOYKHjMwjz50FapsUNk6NMaURtYkETAFU5l8ujPpnlFKS0PsZE3D2bOzl6A+6uA8AgPvBtHNzfQVAEqioDnoy8IdxAKcCmDIB5jXvuY12zKX5IaaBE98VwE1zo/HkqyqLkF1NkAZdgVwSQKyiNn4HrRgWD3C0AeQ6ZPuWOzizgDPDd2POG9/+JmTgXflB51MoZw6Yx5zfWeIC7WcnvvbutQQp8h/T1oVpXHkTphjzlcWk5wgu0ixMvmWWgCbTV7LX3LXSBlf12Mxo2Tr6staxEsYjAPlkWTRj1Fmya/56hR36Aa/9I9wUZlU+p8yk2Nl7fafh8diKUbQUb8JnOQfPo2G0mzMKHgBD9zVZ6y6ttKczu2EyYC4JEAADNyuruepMRlyxhBK0JWtmiRlA5GBGq2WXQ6P8VIlTEYVKva0DDwF6gAhg3OeUr0bzmm8qQCSNjg+XGeywYk/Frnr7dRY8wJEpLkseAChQyQAmfbq2Luf4ECyhSVPuKuEGqQ30BwQhy9Fe7nLEVEBHrDW1BD+rh03pVfyiUeassKG7biCFIrqaiNZ9DEy5EIzb3+1grMmHve0yM4KbHHU+D32VHTjdcvojnAQFAks/jrhMWwZT2bcma5tuYsf1YtIRrMy1/E5PzcAoAWzNFcvwLwEQuziHJutYz6cfcwnlMu1RvmbrrlmB/BGoBIuApVkzAESle03Olq3ptde9/epYa2OKOwYYD2Aqfyl/0IMnaVNpO1yHzkG0dF8Oxz/FXDyIkyQ+XgKw+Ev9J1LOr0Uj42akBUzuM6zVLYakGkvZpSv63E2QVkIruuaHVGlMaalUJ1eBDqHbVo7r2ETrr7/CQm1azKZMuwdZpGsy5BVliRTpZpXeIRjL9Hda50qAQ9DjKSufOz6BSmh2urQmqU+m6btsJfzI4Sem7ar7bncXwdsmdCfLBHCkqi1DqsmUqWCDrbv9etJmXeRqlwnzZ6xA1jksgCfevYH1EPld9zbyKPILcdY7FOAM4uuxeZX+Ua5TQJFQJTDdd5OqWXd7t+XXoBUQsFJOMQDYxdrJAC2DsNP0zWK+VWSe3Y9jDmkypZC616Jd5KdiUrOK1hGyp6vAYCeuw0ZOJvKAN7Msbb0I+XjFNQlT9N7cA6hoidZZ/Ver2Fzx/HP6ihTmyOJ76qBffiO/LYYK6OReOUjP87Ep1WbgulVYlW4/8cmuAfiY8fxKzDqgkI+eIVBR0km0Z3tJlqM9Oy5fZj3XriB5LrNOTtEJgDfzUMNc9JbGXnvvFnd/0gAtxcZSGqq1eFtZKMbZ9PZbsVqY7m4FC2zu5RlbddNVrKm116l/F1vOeUE+HoX3oJnkjGcRSi+nI8uuBRgILo9WyKLZHJhsbC04gyZZfh0OvBgHSD1qB1SeNqFJlqCjhguQJnDIEgTIn401nVgal8y6jPUSWXUNDFrwojSlAjDMP6ZUyX4JOt2DxuPTuTlvXeRgN/aweY7DcY2to8LNb9rI+44lyzNv/xV9PqfWNgcQQok2iAKUGegj6a11uD+HtnJNKj8SC5FTQpvl6VhVgUfu1gFcmw7rv26FBWQaBOCO5crgx6vrGOwBrEq0m732nbdjjTO2UmZBfuI8UNIoKcwxQARdPDBCkCjHmgd0cd8zaZNcMdNpNKsS9eauFptW7cHnysvjo8V5a076nuT1vABTNIpXEpqOAeXzrd7abRtfu8x/U3AnUXges40iixlE2zzC3PKW9eoZf9y00x8/SsxQpCr3QJ8cLkEJU6oENnyPC5pz+WZlyfWp2cFdE7hCuA8rQb5kx/M8Pqy0j154uO6+zfi7uB6dBAMnKm4SFXChqUnviMTES5vTVfUoo7wS3uMAEBpTAiTHc8pxpmSOFXjJ5eHtG61UjNK1ay2aE0K38GZO4Z8PuhnN6K0czYSl6NlAdKjx+XQQWatk/CVIvz3+D2UOALU2jBeN09wjASqbXlkBGaE0Fq57w4DL0K1Svf2cjdg8xknenzdgJlpIjMyhoS6/YSUgRGshoJ5VSpHg78GsRN8JMNJwEo4WL5OdxdTq6EwpCfmKSjfJNOv8ujsnJs+y18Erv84ZJI3DGLxE07OBRDHzirm5AQDCWApM5POqLITRwqUQl+qqou0JPPjTTnOoTimeDvzs6ADzQLNOTAToAA2UIw2THszgT4a27IZVPn/jB4RLd8oqRKTHAgDcfQW/g54iUK95y1V6ysyNrch35uDPCYtSQMqHVsnbJcXXVP/CED6W/GfMt+4VaG2+bUtcv5A5knEXeD2PwIwp9ByfTB6gEZByvVlbfwMnEytx3jmPbuaPQOrfaSpgdl6GdsEXE1h1lq5z8U600fKrdaZL+qeJYQ2A1QfMyLckx7LmNYOASIEA42HqVZymBcjTG3v7GIiKprvJK8p8NubzRrE/InoU7a+/Zb1N8pKu50nlV6IxFdDkMNUdW3vRmim79o3Xx5agPr6GEeniQeYGTlPIYlx111ZV+x5f/9pNEK4WlPoanYb6ffzg2D/TG7pt9YrLJIJG/6S1hvCNBn8zMuO08fcbrK5hk4Zn8Hregelrkdqslxzmcz1gcXtBXcLr5LlaSrsppTSAafbdK4HDNKV1lJD36FwOmkx809guo/pUWSXuw4wNbFJwQ1s4sf5OUi/NE3qHZOYTX7Okcy6/ZTOav66pGv3rWoy5FZWvuXKNTffwK12gWcn++JMh0OmyTuUs2VYSfvPGimf31VsnL9cKfL11kPgzXxc/GnPW6fX6E9PuvONUaHas2T4+K3yUq9GxvEeknfVyQQCzeaHa5f6eI5VufuXQtBRhTSc+0rKJ8PztI1JH3fxbIpVYY0lTzfafvSONdFkHL/+sBuQYSBdmYKuvYUM0C7a5g496/B/aEP0cyR2v+HEib0pnBwgiBMwO7SbWnK1aD+fqmjJ+RzQZJda2+uarBePKPypgS17wTVr61Wmu92ley5xGc7+4u6T8Y9uirY+TICuAlu7eQGqu3vRYPdoOc5KVFwQw59IM+5OFH2Plep7F35wFnSJqcmz4mNf+1ToCKsIeOaXJQHMn8G9p5QmVp5G4k3kaN206nKDKN4KPkwzmQ7fvxTxpjjhlyjNE4GmOQEs5EulvIS1BUfAl6uLSNF69xtfGffNRJ72ome3lTed3rY9wMhdtB3xK/kRsprXLroj3bos1OpkRF9K2ZSUL6XIu2ojJKnM5KwWgIk0p85cUGU6d2Ogo0CNrhb7edbZ/0jfpEwty9vlsff1ufod5TeZWiGaJsF4aN0lF85Vg5fXrPQDLKVGNXy3/tIv0jwCevKUe92ihsc24cVVzu+b75nmPca8B2ow727oeguKi6NhUJia2SLMtzvTdBagxtcT2jE1q5WN2cAqSFJmaLkw4/5wkZhhMFp+T9mrXfB/3m18T19d/nuDxnLb+Je7Q6Na4md8yhf+b4lRJv0DBT2zWcaKjlzAaGruN9kuGaTNuy8y0bNMo6d/uuoDmok0vgXiRNTrLZVEBM+GF+NLFe4JJkbHp30SaxiN7auHfiXl94hbJ+Au7nsR4NPXUkU6zBshA3EjSnBMjj3xd+Ccx1sKIW3StLlBgHp+PegGkZ61IjzWLgKnToMVUpIFEc9/Gfo5QWzXQ4lrL2eD74vtPTrHRIb+VYppfoN+3Kj75cMa02u6zwa0zOKa0o3/4lxY6OFiC4lzmLkpgeq5x3mHuIkPmcXdTvBb5zrIGl2JptSEXNA8kLpdTEyi9TvWNG31ZLOX4oDv+08WyxlOjc1EBM1miJ3jrQGwIL4kYk0aL+sqqGrtwUS/klIlflMB0MDYQecprPz8dWzV76/c6Vcnpyvkh8vzPuvh8zPPPsyUKzgEHFqXGPAd8WZriPHNgCZjnWQBL07fnwBIw2/NlqfY8c2AJmOdZAEvTt+fAEjDb82Wp9jxzYAmY51kAS9O358ASMNvzZan2PHNgCZjnWQBL07fnwBIw2/NlqfY8c2AJmOdZAEvTt+fAEjDb82Wp9jxzYAmY51kAS9O358AlCczJyUkbGRlpz5FzXKu32Hft2mW/+MUvzvHMF/Z0lyQwP/vZz9r73//+cyKZGf6Lvs985jN28803Nz5PP/10Y+6XX37ZNm/ebO94xzvslltuadRf6jeX3Gtvo6OjNjAwYH19fTY+zv/Ncw6KfgGDfs+6iv4R2qOPPmp33HGHf3/44YftrW99q9/n83krFot+f6n/uOQ05s9//nOX+cTEhH39618/J/L3//GsPlPyj9CSid/0pjfZ5z73OXvve99rf/rTn5Jqv6rtpVouKY0pbbRmzRoTKCX0jRs32quvvjpP9no2+8sH5j0+pYrm8R577LGGxjylweqdzgadp0PPmex7SWnMJ554wlau5Pdw1jXRvn377LnnnpvHz2YQzXt4BiqS+U93qLNN5+nSdzr9F+UvPDjVBX/84x+3n/3sZ3b99df7EALIhz70Iff5WscsFAr229/+tlEtc3zvvfdaK5g7OjrsbW97W6OdxhweHraPfOQj9sorr/hG+M53vtN4rpsEUC+++KLt3Lmz8SyZo1HBzUsvvWSf/vSnbffu3Zbjl9G++c1v9mCqp4ffh3MxFxh5SRRSMhGRsa+ViFzOm38IOKLp6WmvJ0hp8KJUKkU/+tGPGu26urr8GaCLAHOjftOmTY0+ugG4EQDy51/+8pejP/zhD9GWLVsa7TUvptz7HDhwIPrmN7/ZeAbI54z1k5/8xJ8BwoiAKXrggQf8e29vb4QLMqftxfZFZu2SKB/96EcjNKCvddu2bQ0wCCh61q7s3bu30S4Bptr9+Mc/btQ3A7NarUb6rjH7+/sbQw4NDTXaNwNTDfB3G8+agVku81+Rxv+tWPS9732vMRbBkrcnqxA1b6RGg4vk5pLwMZVM/+lPf9pIy1x99dV25ZVXgpG4/PCHP0xuG/5no6LNDbJvU2tuwpNgasOGDY02g4P8QtiTLB/72MecFpn9d77znY3eyneqKIB79tlnG/UX280lAUyliLZu3WoPPvigfx566CF7z3ve05AlGs19z0bFKdwIrMpJJkXzJUXgSvzKpO54V431jW98w5vofvlyfgV3m/KlL32pTe3FUXXRBz9KEX3qU5+yN7zhDfbtb3+7IbVWoHzyk5+0d73rXQsCUGtfDaq65hOdxkT1m2Np2dZ2+p601Zi6bzef2h09elSXi7Jc9MB8/PHHHZQy5a1F5vJrX/uaVyuClhnGR2w08/8xrQ6ORuUCb3QUebqlHSiPBdLTnetC639Rm3IJVufiX/3qV9vyXemjpBC4eIon+a6r0jOJ9mquP9Z9kjYSeIjGj9XshPVKG2mDJBqzuUMzPc2+Z3Obi+H+ogamtOALL7zgJzzthLVu3Tpbu3atPxIIfve7381pdiztpFxou3Lrrbd6tcAzNTXVaELqqXHfetMMtOZnCsiSZ1pHUp588snk1j7wgQ807i+6GxZ/URZMaXTnnXdGnZ2d0eHDh4+5xne/+92NdA3CjRB2o63SPwQe/hyQRl/84hejL3zhCxG+aKPP+vXrG+2VviGx3nimdvfff39EUryR+tEcd999d/TUU095v0OHDjXaK6eaFI2VpIbuuecer1ad+usjOi7mclGelSvgkf+I0JEh/2kK/zG9XpYgX+nf9ePIkSP2rW99y5o1UPJQbT/xiU/4V5283Hjjjf7Wj0z7V77yFY/wdVWR2X3jG99oiVsgl+CDH/ygkXv05/JTv//979v73vc+IzFud911l39k9tkw9t3vftdTP2osDa1oXi91qABE+/CHP+x0kqT3dgp4Pv/5z89Zize+yH5clMA8FRmhfY4Z/cos6/hQ700eK3XTOqdAt3//flPOVIDUe5e6P5Wi1/N27NjhXS+VdzaXgHkCpBwPsCfouuDH52KOBRNzgTRcAuYFIoglMuZy4KKOyucudenbYuLAEjAXk7QuIVqXgHkJCXsxLXUJmItJWpcQrUvAvISEvZiW+v8BtMwNlW4JdHQAAAAASUVORK5CYII=;" vertex="1" parent="1">
          <mxGeometry x="298.5" y="18" width="72.63" height="42" as="geometry" />
        </mxCell>
        <mxCell id="tqYmkk8fS8SQap67BdXh-28" value="" style="shape=image;verticalLabelPosition=bottom;labelBackgroundColor=default;verticalAlign=top;aspect=fixed;imageAspect=0;image=data:image/png,iVBORw0KGgoAAAANSUhEUgAAADQAAABCCAYAAAAYA/U3AAABVmlDQ1BJQ0MgUHJvZmlsZQAAKJFtkL8vQ2EUhp9WhSghwmZoYqmkhJYgpjIg6XBTxI9E4rqt20pbn9srQvwRFv4BYmRTI6vYJCRiMRpF0gW5zm3RFic5Oc/35v1OTl7wNupKZXxANmdb8cnxwMLiUqDhGS+dtDBGt27kVVTTYmLhe9ZW8Q6PO2973V0H/mueIumjd/304bFgOn/9NdWUSOYNme/SfYaybPCEhLVtW7m8J9xhyVHC+y6bZT52ebXMFyXPbHxC+Ea4zUjpCeFH4dBqlW5WcTazZXzd4F7fnMzNzchsl+5CY4oYAcIMM8I4A5LP//7Bkn+CDRQ7WKQxSWHL36goigxJ4WlyGPQRKu3slx5yc/6dX0XbDMLoC3jXK9ryLpyfQauqaMGIvFfgKq50S/9J1VP05dci4TL7C1B/6Div89DQAx/3jvNWcJyPE6h7gMviJ/ZbZAkuyJy4AAAAbGVYSWZNTQAqAAAACAAEARoABQAAAAEAAAA+ARsABQAAAAEAAABGASgAAwAAAAEAAgAAh2kABAAAAAEAAABOAAAAAAAAAJAAAAABAAAAkAAAAAEAAqACAAQAAAABAAAANKADAAQAAAABAAAAQgAAAABBBxFqAAAACXBIWXMAABYlAAAWJQFJUiTwAAALFElEQVRoBe1aCVCURxb+hnOGGxQJCgEleEBU0FUTRI2JpZbgtZHoooXrxgsVt8oru+tRq+u1anQ9yqPEWxSPiqWruEkZiaIERVTEqxAUFgJKFBi5hmFm/u3XOr+AM8PA/K5brq9qpq/3uvvr4/X7u59MYIR3iKzeISwcyntA/+szatPSDj548AAZGRktFedyCoUCI0aMgEwms6ieBsKkFFpCERERpEws+tnY2AgTJ04UtFptS7pgUKbFM1RXV4fw8HDs2rWrwQCZm7h16xaioqKQkJDARXbv3g0rK8u3dIsBUS9sbW3h7u4uYigoKMCGDRvEtLHI8OHD4erqyospnpiYyONSgDIbUHZ2NpRKpdjHiooKyOVyMU2RyspKpKenN8gzlAgNDRUBDRs2DIGBgdi4cSNn3bNnj0V7yixAEyZMwJEjR6DRaBr0b+DAgQ3SXbp0QUpKSoM8Y4nr16+LRSNHjuRxAsU2Bvbu3dtiUE0CIm1GYP40wg9fBL9aXgsSH4odMhV58uQJqquqOYuDowO8vLwasC9duhR2dnY8j8JDhw5xnjVr1jTgMzfRJKDy8nI+MwSmZ3tnsV4XuQ10YspwhJZlWFgYKCRydnbGzZs3edipUydMnjwZKpWqgfCFCxeQmZnZIK85iSYBNaeyxry0RAlMl37jedG9lAQ+OExNQ61WY/78+TzfxcUF1tbWPD527FjOU1ZWJlZHysfJyUlMm4pIBigvLw/JycliW7S/9JrMxbODmE+RVatWYdOmTWLe7NmzsWjRIjF9/vx5eHh4iGma2ZkzZ3I5MdNIRDJAW7Zswf79+8VmYmJisHDhQjFdP1JaWgonV0/494xGXsYhULo+dfN3wx+H+ohZqdlKfhxMnz4dfn5+Yr6hiOUn2ctadTod2vgEYObWdB5S2hTZ2CrQ2j8MFDYmT2c7RPX2FH8T+nqhtrYWJSUljVlfS0sG6LWa31LGOweoyT1048YNPtbfJhWilbOtOO4PnlRDKM/BnDlzeN61a9dQU1GGi4kreUjpxYsX87KCW2dFOcojO06teo7ctJ08JF59PTk5OZDVViNuf44o86yijsfpMO7Vq5eYbygiI5PVUAHlnT59GmPGjEE7LwfY21njybMalJZVwbeNM5wUL9SsMVlL8ytrtCgoqYCHuyO8WilQq9biFzaIx48fR2RkpNHqTc5QUlIS2rZR4N6p4dwUuZNTjogZyVDYyfDPJd3h7fHihDdaewsLikvVGPbXm6xtF5zZNhDBH7lxk6jz8FOgPrUYEB2Mcnsb0a6iipO2DsQwBipsfjpbgm8GUGmFGta2NiIYGhf6CKS+NLYnG4+ZyRlqzEzpIAbqLBu1zYezodMZXa2GRM3Os7KSYdbvOiIowM1sGT2jGYCYIrR7ZZSSYJcu7ti6rL2+jjcbaqsArdrsNpoEJLOyhbVTgNkVSs2orcpngH41u9omAZlT028n70K16oVqNYffEI+D3BbfxX9tqKhZef9/B6s5wyPFyJrTjjk872fInFEiHnWdBilXcnExLRcFxeVczNfbDf0/CUC/3gHss1uS7ftadySvVavVYcfBVHy7Ixl5BSVQODqxU57dSPIzS4blG8/C39cTc6d9jmkTwtiXqrSLRNLanlfUICJmB+IWHYHMNQAjZm3ExFU/wLtDV7i2CUSfsdvRfeifUW3lw3mIl2SkJMlmSFVbh8jf78T1O48xZNIyBPxmKDdXdDotdFoNmyENS1vBvW0I3Ly7wzMvFSlpu7nMD4dimVnzypK3BKBkgBatSUJ6ZgGGfL0SH37cD3WqKmT8axdyrn0P5ctP7GvfxbGv1E/xYbcv4dm+L2zsHHAl+R8g2XWLX9zNWQKGZCUBlF/4DPGHUxHcdxQHo6osw+nNM6FSFmHsiJ4YFB7I+3nuErvjO5UMZXEWggb9Be7tQtGu0xdMNhlxk8Lh59PKUjyQZA/FH74Cjc4aPYb+gZv5PyX8DVD9ih8TZ2Hbqih8GRHCfxSnPHsokZu6g/P6dB0FtcaKgbpiMRiqQBJAyZez8YH/x5A7uaO06AFyM3/Gim8iENr11c2NvreUt5yVPcm/jqqyPNjKXbjCSE7N1rNYFEoCKK+wFFbWNsjJ+B5ZyYlwdbFHVGSo0Y59xcpcXRyhLMriPA5uvsgvaHiVZVS4iQJJ9lCtWoPiWynIZT+itt4eUDBj0xhRmaODPTRq9mnAyJpdZanYJ7YUZHKG6CvRnI84FycFAnpEInLeKXQfPBPlyio8K33RWUOdfMrKiMfesTUvrlMp4erc8GnGkBz1pannS5MzFBwczG5D9yJm9kHIFcZHXK3Rou7pQ9gqXOAd9BnuXdyDDfEX+D6ir8/6RJ3asPMnpkTYmeTbk5kQAiqZrFymxdRvjtRn5XFBU8m+h1RQ1WqRX6QE9ckUmQQUGxsLurM+d+4c6ILdGCkc3FBSkMs6lgen1v5oHxqJzXtOwq3tJxgXHSOOKl0wHU7Yhy17L0DOZsfGVo5qZSGeMzl3P1/8fNPYPrJiJpItYmPj2C/WWDd4vslrLJOS9Qqrq6vRuXNn6BTt0Ourlcwq0OHWmb+j4E4yH9G+ffty7suXL+POnTv44KM+eFaYBYVLW1jb2EMulOL+/ftwcHCoV2vLopIAoqbpnZS9aCMwLBqB4TG8NyU5V1CQeQYVbAaInNnsfRgSCc+A3ij9dybSjrLLfGYS7du3D+PGjeM8lv6ZXHLNqZw6RA9V69atg6ryGYI+nw6vwE/5r3E9mtoqFN4+x7CoMW/ePMnAUDuSzZC+0+vXr8eyZcugk9mhXfAgtAnoA0cPOmAFVJUWgmbtl7s/wkpQY8mSJeIVsF7e4pCugqUm9mLOHSpat24tkHMFR8MQUZzy2NIUiOdNkOQzVH+E6dkxKysL+fnsKooRPVZ17dpVfCSuzytV/I0CkqqTzanHpFJ4/Pgx10D6V2xDFdvb24Meejt27Gio+L+eZ9L0oUOVfBTIY4S8PciThJwjioqKeJpepk+cOGHRM7weMT1hNn7i15c1JzQ5Q2QdLFiwQFSrZEfRw3BISAg/c6ihHj168Cf65jRqiJde0MnJgx6GLSGTgLp16wb6maJ+/fpZDKi4uBgrVqzAgAEDTDVlVplJQOQf0BSREx/9aL9t374d9IRJjhLkHzRkyBAcOHAAx44d48uJHqroAF6+fDkIRFxcHF+6M2bMQFpaGn/eJyepuXPn8plvqm1D5Sb3kCEBQ3nkVkad6N+/P99z5PYyZcoUHD16lLu/DB48GLdv3+ZP825ubiDbj9xiCHCHDh24E4a3tzdGjx7N/edoGbeUTM6QuZWSLUY+BA8fPsSjR4+4EmGHJgfEDlFuIV+9ehXkD0cKhR5+yTXzTZDFgEhxkI8ceVnRyJLioJCWF/nwEJE2JHNo1KhRoBdvikvhvWhoQCwGRG+epG4pDAoKes0pUN8ogSJLgRxvDx48KL0N97Ihi/cQKQB/f38+8mfPvvJHePr0KeLj43kzNTU1fJ+QkxK5ZJLjEimBN0HNAkSOs3QAUgf1REsnOjoazPDE1KlTMW3aNKxevRqTJk0CKQAi2ju06ckdkxwvHB0duWMTgSaiQSH3stzcXFy6dAn1vR05Q3P+zLF4GQCBeRoKzAtYYF6HAtsjAvMNFZ4/fy6Knzx5UmC+pAJbWgLTXMK2bdsEthSFtWvXCj4+PgIDKTBjVbh7967AlILArA+BXKWZ9uN8TIVzS3z8+PEC884S621u5J0zTpu15Joz82+L9z2gtzXy5rb7zs3QfwBzIOzdoNKLPAAAAABJRU5ErkJggg==;" vertex="1" parent="1">
          <mxGeometry x="629.25" y="23" width="33" height="41.88" as="geometry" />
        </mxCell>
        <mxCell id="tqYmkk8fS8SQap67BdXh-52" style="edgeStyle=orthogonalEdgeStyle;rounded=0;orthogonalLoop=1;jettySize=auto;html=1;exitX=0.5;exitY=0;exitDx=0;exitDy=0;entryX=0.5;entryY=1;entryDx=0;entryDy=0;curved=1;" edge="1" parent="1" source="tqYmkk8fS8SQap67BdXh-33" target="tqYmkk8fS8SQap67BdXh-5">
          <mxGeometry relative="1" as="geometry">
            <Array as="points">
              <mxPoint x="299" y="327" />
              <mxPoint x="260" y="327" />
            </Array>
          </mxGeometry>
        </mxCell>
        <mxCell id="tqYmkk8fS8SQap67BdXh-53" style="edgeStyle=orthogonalEdgeStyle;rounded=0;orthogonalLoop=1;jettySize=auto;html=1;exitX=0.5;exitY=0;exitDx=0;exitDy=0;curved=1;" edge="1" parent="1" source="tqYmkk8fS8SQap67BdXh-33" target="tqYmkk8fS8SQap67BdXh-6">
          <mxGeometry relative="1" as="geometry">
            <Array as="points">
              <mxPoint x="299" y="328" />
              <mxPoint x="354" y="328" />
            </Array>
          </mxGeometry>
        </mxCell>
        <mxCell id="tqYmkk8fS8SQap67BdXh-33" value="Router" style="rounded=1;whiteSpace=wrap;html=1;fillColor=#d5e8d4;strokeColor=#82b366;" vertex="1" parent="1">
          <mxGeometry x="270.5" y="317" width="57.5" height="20" as="geometry" />
        </mxCell>
        <mxCell id="tqYmkk8fS8SQap67BdXh-54" style="edgeStyle=orthogonalEdgeStyle;rounded=0;orthogonalLoop=1;jettySize=auto;html=1;exitX=0;exitY=0.5;exitDx=0;exitDy=0;entryX=0.5;entryY=1;entryDx=0;entryDy=0;curved=1;" edge="1" parent="1" source="tqYmkk8fS8SQap67BdXh-34" target="tqYmkk8fS8SQap67BdXh-7">
          <mxGeometry relative="1" as="geometry" />
        </mxCell>
        <mxCell id="tqYmkk8fS8SQap67BdXh-55" style="edgeStyle=orthogonalEdgeStyle;rounded=0;orthogonalLoop=1;jettySize=auto;html=1;exitX=1;exitY=0.5;exitDx=0;exitDy=0;entryX=0.5;entryY=1;entryDx=0;entryDy=0;curved=1;" edge="1" parent="1" source="tqYmkk8fS8SQap67BdXh-34" target="tqYmkk8fS8SQap67BdXh-8">
          <mxGeometry relative="1" as="geometry" />
        </mxCell>
        <mxCell id="tqYmkk8fS8SQap67BdXh-34" value="Router" style="rounded=1;whiteSpace=wrap;html=1;fillColor=#d5e8d4;strokeColor=#82b366;" vertex="1" parent="1">
          <mxGeometry x="614.5" y="320" width="57.5" height="20" as="geometry" />
        </mxCell>
        <mxCell id="tqYmkk8fS8SQap67BdXh-36" value="" style="rounded=0;whiteSpace=wrap;html=1;fillColor=#f5f5f5;gradientColor=#b3b3b3;strokeColor=#666666;" vertex="1" parent="1">
          <mxGeometry x="426" y="241" width="93" height="99" as="geometry" />
        </mxCell>
        <mxCell id="tqYmkk8fS8SQap67BdXh-57" style="edgeStyle=orthogonalEdgeStyle;rounded=0;orthogonalLoop=1;jettySize=auto;html=1;" edge="1" parent="1" source="tqYmkk8fS8SQap67BdXh-37">
          <mxGeometry relative="1" as="geometry">
            <mxPoint x="475" y="228" as="targetPoint" />
          </mxGeometry>
        </mxCell>
        <mxCell id="tqYmkk8fS8SQap67BdXh-37" value="Shared Expert Group" style="text;html=1;align=center;verticalAlign=middle;whiteSpace=wrap;rounded=0;" vertex="1" parent="1">
          <mxGeometry x="447" y="252" width="56" height="24" as="geometry" />
        </mxCell>
        <mxCell id="tqYmkk8fS8SQap67BdXh-38" value="" style="rounded=1;whiteSpace=wrap;html=1;fillColor=#f8cecc;strokeColor=#b85450;" vertex="1" parent="1">
          <mxGeometry x="436" y="296" width="34" height="30" as="geometry" />
        </mxCell>
        <mxCell id="tqYmkk8fS8SQap67BdXh-39" value="" style="rounded=1;whiteSpace=wrap;html=1;fillColor=#f8cecc;strokeColor=#b85450;" vertex="1" parent="1">
          <mxGeometry x="480" y="296" width="34" height="30" as="geometry" />
        </mxCell>
        <mxCell id="tqYmkk8fS8SQap67BdXh-50" value="" style="shape=sumEllipse;perimeter=ellipsePerimeter;whiteSpace=wrap;html=1;backgroundOutline=1;" vertex="1" parent="1">
          <mxGeometry x="465" y="200" width="25" height="28" as="geometry" />
        </mxCell>
        <mxCell id="tqYmkk8fS8SQap67BdXh-62" value="MoE Layer" style="text;html=1;align=center;verticalAlign=middle;whiteSpace=wrap;rounded=0;" vertex="1" parent="1">
          <mxGeometry x="687" y="199" width="60" height="30" as="geometry" />
        </mxCell>
        <mxCell id="tqYmkk8fS8SQap67BdXh-63" value="···" style="text;html=1;align=center;verticalAlign=middle;whiteSpace=wrap;rounded=0;fontSize=16;" vertex="1" parent="1">
          <mxGeometry x="276" y="274" width="60" height="30" as="geometry" />
        </mxCell>
        <mxCell id="tqYmkk8fS8SQap67BdXh-64" value="···" style="text;html=1;align=center;verticalAlign=middle;whiteSpace=wrap;rounded=0;fontSize=16;" vertex="1" parent="1">
          <mxGeometry x="609.5" y="277" width="60" height="30" as="geometry" />
        </mxCell>
      </root>
    </mxGraphModel>
  </diagram>
</mxfile>
